M48
;Layer_Color=9474304
;FILE_FORMAT=2:5
INCH,TZ
;TYPE=PLATED
T2F00S00C0.01000
T3F00S00C0.02756
T4F00S00C0.03543
T5F00S00C0.03700
T6F00S00C0.04016
T7F00S00C0.04331
T8F00S00C0.05900
T9F00S00C0.06299
T10F00S00C0.07300
;TYPE=NON_PLATED
T11F00S00C0.05000
T12F00S00C0.12000
T13F00S00C0.16900
%
T02
X471200Y49900
X421962Y82324
X416262Y82524
X388762Y79724
X393400Y63800
X389100Y182900
X400200Y197100
X402900Y203000
X399700Y211800
X360000Y156500
X365400Y82800
X368900Y67400
X347000Y77000
X266000Y71900
X252900Y75100
X257500Y84700
X258500Y89000
X265000Y88500
X251000Y95500
X244000Y88500
X233500Y98000
X228500Y77273
X288500Y106600
Y118800
X284000Y130000
X279600Y132700
X277039Y166650
X273965Y171000
X277500Y174500
X267000Y169000
X237500Y184500
X242600Y190100
X239300Y200300
X244800Y204500
X250800
X302250Y209550
X158000Y203500
X153600
Y185900
Y161000
X170600Y161300
X175400Y161400
X175300Y154800
X170700Y154700
X170600Y168800
X175400
X175300Y176200
X170700Y175900
X170600Y119000
X175300Y123100
X211229Y92607
X100000Y77500
X103100Y161400
X103000Y167600
X102000Y191000
X121500Y187800
X114319Y202575
X70000Y197000
X52000Y198200
X47000Y198000
X42000
Y203000
X42015Y208000
X41945Y192555
X42000Y188000
X47000
X39600Y176700
X24000Y174000
X27597Y169965
X27500Y161036
X21700Y188000
Y193000
Y203000
Y208000
X22000Y99500
X16000
Y90500
X19000
X21997Y90376
X13000Y90500
Y77500
X19000Y80500
X22100Y232466
X22000Y237900
X17100Y238200
X15500Y235200
X21800Y243100
X15500Y250500
X16900Y258000
X21900Y257900
X22000Y263100
X25300Y268236
X32300Y268000
X37000Y267700
X37100Y263100
X41600Y263000
X41700Y258000
X42000Y253000
X46800Y253100
X42000Y248000
X37100Y247900
X37000Y243000
Y238000
Y233000
X41982Y232982
X42000Y228000
Y223000
Y218000
Y213000
X37000Y218018
Y223000
X51800Y218000
Y233150
X32300Y258054
X31900Y272700
X37000Y278000
X42000
X42200Y273000
X42000Y268100
X37000Y283000
X32200Y282900
X32000Y288000
X37000Y293000
Y298000
Y303000
Y308000
Y318000
X37040Y322960
X37100Y333100
X46900Y337900
X52000Y338000
X47000Y328000
X41976Y352976
X32352Y352952
X22000Y358000
X16799Y358116
X15500Y350500
X16750Y338000
X22000
Y343000
X15500Y330500
X16500Y318000
X16000Y310500
X17000Y298000
X15500Y290500
X17000Y278000
X15400Y270500
X68500Y273000
X71500Y281000
X74500Y283500
X77500Y286000
X80500Y288500
X83500Y291500
X86800Y293300
X86500Y298600
X94100Y294200
X99775
X105450
X111125
X116800
X116500Y305800
X122700Y306100
X136400Y309000
X158700Y311600
X180600Y313400
X203700
X212700Y329600
X208700Y339500
X186370Y339530
X190300Y330100
X168200Y330400
X164225Y339275
X173100Y352300
X195500Y353200
X150000Y351700
X141281Y339322
X145300Y330300
X124400Y330200
X119070Y339322
X127100Y352300
X103200Y351200
X96900Y339400
X100700Y330300
X80300Y324900
X80600Y337600
X67600Y327600
Y303000
X69346Y258700
X69800Y253500
X68800Y245700
X67327Y242902
X68500Y238100
X74500Y238500
X77500Y241000
X81000Y238500
Y245000
X79282Y253482
X83500Y258700
X87000Y268000
X94800Y267600
X111600Y268600
X112700Y263600
X129800Y260400
X134787Y272547
X139287
X140787Y281047
X124500Y287500
X170000Y285000
Y291000
X151764Y256274
X145787Y256250
X118800Y241000
X119300Y231600
X101163Y239663
X104500Y248871
X103500Y221000
X79000Y215600
X74561Y231450
X68500
X148000Y213500
X84311Y367991
X79900Y364400
X75152Y360952
X74107Y368093
X68500Y366600
X71100Y356100
X217300Y351400
X239900
X259500Y351800
X252600Y339100
X257100Y330200
X279200Y330300
X275400Y339400
X280900Y350400
X299200Y355250
Y360262
Y365275
X326900Y362200
X327400Y354500
X343500Y348000
X349437Y345634
X354047Y345744
X360000Y348000
X361000Y356500
X368900Y354800
X354000Y363000
X349500Y360000
X335168Y327407
X335100Y323100
Y318500
Y314300
X344000Y313900
X344100Y318200
X344000Y309300
Y305500
X339000Y296500
X329600Y292800
X329900Y287400
X330200Y255600
Y251460
Y247320
Y243180
Y239040
Y234900
X293498Y228502
X302250Y213500
X299970Y253970
X271900Y313400
X245265
X224800
X234400Y330400
X230133Y339353
X361200Y307200
Y302500
Y297900
X368000Y294800
X368441Y216141
X382000Y243500
Y271500
X385850Y294650
X392200Y297900
X394100Y307000
X403100Y302500
X373300Y352500
X443500Y221000
X366500Y390500
X361800Y393500
X357500Y390550
X351300Y389000
X341803Y389461
X334400Y381500
X335900Y375500
X325500Y375000
X299028Y375128
X299200Y370287
X277800Y376153
X234300
X189800Y376238
X145500Y376100
X101800Y375653
X59500Y379400
X62800Y383800
X62500Y389300
X65982Y391818
X42000Y373000
X15500Y370500
X16500Y378500
T03
X227272Y214600
X233178
X239084
X244989
X250894
X256800
X262705
X268611
X274517
X280422
T04
X90800Y364153
X112800
X134800
X156800
X178800
X200800
X222800
X244800
X266800
X288800
Y374153
Y384153
X266800
Y374153
X244800
Y384153
X222800
Y374153
X200800
Y384153
X178800
Y374153
X156800
Y384153
X134800
Y374153
X112800
Y384153
X90800
Y374153
T05
X44200Y51500
X53200
X62200
X71200
X80200
X167500
X176500
X185500
X194500
X203500
X290500Y51000
X299500
X308500
X317500
X326500
X413400Y51100
X422400
X431400
X440400
X449400
X444900Y61100
X435900
X426900
X417900
X413400Y71100
X422400
X431400
X440400
X449400
X453900Y61100
X331000Y61000
X322000
X313000
X304000
X295000
X290500Y71000
X299500
X308500
X317500
X326500
X203500Y71500
X194500
X185500
X176500
X167500
X172000Y61500
X181000
X190000
X199000
X208000
X84700
X75700
X66700
X57700
X62200Y71500
X71200
X80200
X53200
X44200
X48700Y61500
T06
X237500Y176500
X247500
X257500
X267500
X305000Y169500
X315000
X325000
X335000
X345000
X355000
X202000Y151000
X192000
Y137100
X202000
X87700Y139100
Y149100
X129000Y201500
X139000
X142000Y225000
Y235000
Y245000
X156000Y244500
Y234500
X97000Y233500
Y223500
Y213500
X87000
Y223500
Y233500
Y243500
X97000
Y253500
X87000
T07
X463000Y129000
Y139000
Y149000
Y159000
X473000
Y149000
Y139000
Y129000
Y169000
Y179000
Y189000
Y199000
Y209000
X463000
Y199000
Y189000
Y179000
Y169000
Y219000
Y229000
X473000
Y239000
Y249000
X463000
Y259000
Y269000
X473000
Y279000
X463000
X473000Y259000
X463000Y239000
X473000Y219000
T08
X350000Y226500
X362600
Y288700
X350000
T09
X185737Y222277
X321957
T10
X356300Y239100
Y257600
Y276100
T11
X42000Y170949
X54008Y385051
T12
X383200Y61100
X481600
X358700Y61000
X260300
X235700Y61500
X137300
X112400
X14000
T13
X476000Y104700
Y369000
M30
