G04*
G04 #@! TF.GenerationSoftware,Altium Limited,Altium Designer,20.0.10 (225)*
G04*
G04 Layer_Physical_Order=4*
G04 Layer_Color=16711680*
%FSLAX25Y25*%
%MOIN*%
G70*
G01*
G75*
%ADD12C,0.01000*%
%ADD66R,0.02756X0.03543*%
%ADD67R,0.03347X0.02756*%
%ADD71R,0.03543X0.02756*%
%ADD72C,0.02000*%
%ADD73C,0.05000*%
%ADD74C,0.09449*%
%ADD75C,0.04756*%
%ADD76R,0.04756X0.04756*%
%ADD77C,0.12000*%
%ADD78C,0.05700*%
%ADD79R,0.05700X0.05700*%
%ADD80C,0.06600*%
%ADD81C,0.07900*%
%ADD82C,0.10300*%
%ADD83C,0.06496*%
%ADD84R,0.06496X0.06496*%
%ADD85R,0.06102X0.06102*%
%ADD86C,0.06102*%
%ADD87C,0.16900*%
%ADD88R,0.06102X0.06102*%
%ADD109C,0.02520*%
%ADD110R,0.03937X0.05512*%
%ADD111R,0.03543X0.03150*%
G04:AMPARAMS|DCode=112|XSize=11.81mil|YSize=39.37mil|CornerRadius=1.95mil|HoleSize=0mil|Usage=FLASHONLY|Rotation=180.000|XOffset=0mil|YOffset=0mil|HoleType=Round|Shape=RoundedRectangle|*
%AMROUNDEDRECTD112*
21,1,0.01181,0.03547,0,0,180.0*
21,1,0.00791,0.03937,0,0,180.0*
1,1,0.00390,-0.00396,0.01774*
1,1,0.00390,0.00396,0.01774*
1,1,0.00390,0.00396,-0.01774*
1,1,0.00390,-0.00396,-0.01774*
%
%ADD112ROUNDEDRECTD112*%
%ADD113R,0.04134X0.04134*%
G04:AMPARAMS|DCode=114|XSize=25.59mil|YSize=47.24mil|CornerRadius=1.92mil|HoleSize=0mil|Usage=FLASHONLY|Rotation=180.000|XOffset=0mil|YOffset=0mil|HoleType=Round|Shape=RoundedRectangle|*
%AMROUNDEDRECTD114*
21,1,0.02559,0.04341,0,0,180.0*
21,1,0.02175,0.04724,0,0,180.0*
1,1,0.00384,-0.01088,0.02170*
1,1,0.00384,0.01088,0.02170*
1,1,0.00384,0.01088,-0.02170*
1,1,0.00384,-0.01088,-0.02170*
%
%ADD114ROUNDEDRECTD114*%
%ADD115R,0.03740X0.04134*%
%ADD116R,0.04921X0.04331*%
G36*
X39500Y225500D02*
D01*
D02*
G37*
D12*
X293573Y363645D02*
G03*
X293573Y364661I-4773J508D01*
G01*
X69346Y258700D02*
Y259133D01*
X83500Y258700D02*
Y291500D01*
X98300Y372153D02*
X101800Y375653D01*
X68500Y238100D02*
Y238500D01*
X72100Y242100D01*
X349484Y387184D02*
X351300Y389000D01*
Y389077D01*
X341803Y389461D02*
X341995Y389269D01*
X345457Y384283D02*
Y386843D01*
X343031Y389269D02*
X345457Y386843D01*
X347425Y384283D02*
X347516Y384193D01*
X349484D02*
Y387184D01*
X341995Y389269D02*
X343031D01*
X344500Y390346D02*
Y396900D01*
Y390346D02*
X347425Y387420D01*
Y384283D02*
Y387420D01*
X345457Y384283D02*
X345547Y384193D01*
X357500Y386507D02*
X359826Y384180D01*
Y378594D02*
Y384180D01*
Y378594D02*
X360606Y377814D01*
X361447Y375031D02*
X365230D01*
X360606Y375872D02*
X361447Y375031D01*
X360606Y375872D02*
Y377814D01*
X368900Y354800D02*
Y357300D01*
Y357300D01*
X370933Y360276D02*
X372500Y361842D01*
X370933Y359333D02*
Y360276D01*
X368900Y357300D02*
X370933Y359333D01*
X80422Y347331D02*
X88900D01*
X80100Y347653D02*
X80422Y347331D01*
X163785Y335694D02*
X164663Y336572D01*
X165056D01*
X167300Y338815D01*
X163785Y335300D02*
Y335694D01*
X167300Y338815D02*
Y341367D01*
X164225Y339275D02*
Y343139D01*
X164333Y343247D01*
X195500Y339385D02*
Y353200D01*
Y339385D02*
X196215Y338669D01*
X259500Y342018D02*
Y351800D01*
X261380Y340925D02*
X262849Y339457D01*
X260593Y340925D02*
X261380D01*
X262849Y338669D02*
Y339457D01*
X259500Y342018D02*
X260593Y340925D01*
X280900Y342829D02*
Y350400D01*
X283591Y340925D02*
X285060Y339457D01*
X282804Y340925D02*
X283591D01*
X285060Y338669D02*
Y339457D01*
X280900Y342829D02*
X282804Y340925D01*
X77854Y315900D02*
X185500D01*
X187500Y305400D02*
Y313900D01*
X185500Y315900D02*
X187500Y313900D01*
X82661Y61500D02*
X85800D01*
X93788Y69488D01*
Y70669D01*
X94666Y71547D02*
X95000D01*
X93788Y70669D02*
X94666Y71547D01*
X208000Y61500D02*
X208300D01*
X216055Y69255D01*
Y70669D01*
X216933Y71547D01*
X217000D01*
X207101Y62399D02*
X208000Y61500D01*
X199000Y68403D02*
Y73500D01*
X205004Y62399D02*
X207101D01*
X199000Y68403D02*
X205004Y62399D01*
X201513Y51300D02*
X203500D01*
X194500Y58313D02*
Y64500D01*
X202601Y52399D02*
X203500Y51500D01*
X194500Y58313D02*
X201513Y51300D01*
X203500Y51500D02*
X212500D01*
X75800Y68362D02*
X82661Y61500D01*
X71069Y77500D02*
X75800Y72769D01*
Y68362D02*
Y72769D01*
X28200Y81600D02*
X71400D01*
X77939Y73761D02*
X80200Y71500D01*
X71400Y81600D02*
X77939Y75061D01*
Y73761D02*
Y75061D01*
X22000Y87800D02*
X28200Y81600D01*
X22000Y87800D02*
Y90373D01*
X14900Y69500D02*
X16719D01*
X2000Y82400D02*
X14900Y69500D01*
X2000Y82400D02*
Y348000D01*
X2000Y348000D01*
X15500Y71500D02*
X17500D01*
X3900Y83100D02*
X15500Y71500D01*
X3900Y83100D02*
Y329900D01*
X3900Y329900D01*
X169600Y56500D02*
X185500D01*
X29546Y85500D02*
X140600D01*
X169600Y56500D01*
X164600Y66000D02*
X180000D01*
X30091Y87500D02*
X143100D01*
X164600Y66000D01*
X328300Y46500D02*
X330900Y49100D01*
X229469Y80031D02*
X263000Y46500D01*
X328300D01*
X326500Y59000D02*
X330900Y54600D01*
Y49100D02*
Y54600D01*
X209231Y80031D02*
X229469D01*
X53754Y398300D02*
X294800D01*
X320500Y354000D02*
Y372600D01*
X294800Y398300D02*
X320500Y372600D01*
X54500Y396500D02*
X293900D01*
X318500Y353454D02*
Y371900D01*
X293900Y396500D02*
X318500Y371900D01*
X316500Y352909D02*
Y371354D01*
X55246Y394700D02*
X293154D01*
X316500Y371354D01*
X314700Y347875D02*
Y370500D01*
X292300Y392900D02*
X314700Y370500D01*
X68054Y392900D02*
X292300D01*
X71700Y389000D02*
X290954D01*
X310877Y369077D01*
X298009Y379400D02*
X309077Y368332D01*
X59500Y379400D02*
X298009D01*
X310877Y343023D02*
Y369077D01*
X68500Y390800D02*
X291700D01*
X288800Y364800D02*
X299028Y375028D01*
X309077Y340323D02*
Y368332D01*
X312900Y345200D02*
Y369600D01*
X291700Y390800D02*
X312900Y369600D01*
X299028Y375028D02*
Y375128D01*
X230133Y339353D02*
Y342222D01*
X230033Y342322D02*
X230911Y343200D01*
X230033Y342322D02*
X230133Y342222D01*
X230911Y343200D02*
X231100D01*
X234100Y339365D02*
Y349336D01*
X231635Y336900D02*
X234100Y339365D01*
Y349336D02*
X238665Y353900D01*
X37040Y376519D02*
X37100Y376579D01*
Y379100D02*
X54500Y396500D01*
X37100Y376579D02*
Y379100D01*
X365230Y375031D02*
X366527Y376328D01*
Y377814D01*
X367306Y378594D01*
X368873Y354827D02*
Y357300D01*
Y354827D02*
X368900Y354800D01*
X367724Y358449D02*
X368873Y357300D01*
X348000Y398062D02*
X353000D01*
X347962Y398100D02*
X348000Y398062D01*
X344500Y396900D02*
X345700Y398100D01*
X347962D01*
X353008Y394016D02*
X353127Y393361D01*
X353222Y392842D01*
X352278Y393338D02*
X353000D01*
Y394035D02*
X353008Y394016D01*
X352278Y393338D02*
X352844Y393040D01*
X353000Y393338D02*
Y394035D01*
X352844Y393040D02*
X353222Y392842D01*
X353359Y392979D02*
X353748Y392589D01*
X353000Y393338D02*
X353359Y392979D01*
X354100Y387065D02*
Y392238D01*
X353748Y392589D02*
X353850Y392488D01*
X354100Y392238D01*
X353000Y393338D02*
X353162Y393500D01*
X361800D01*
X348000Y393338D02*
X348156Y393494D01*
X348178D02*
X348456Y393264D01*
X349565Y390813D02*
X351300Y389077D01*
X349272Y391106D02*
Y391986D01*
X348156Y393494D02*
X348178D01*
X349272Y391106D02*
X349565Y390813D01*
X348392Y392866D02*
X348456Y393264D01*
X348392Y392866D02*
X349272Y391986D01*
X352693Y385657D02*
X354100Y387065D01*
X351453Y367647D02*
Y370807D01*
Y367647D02*
X354000Y365100D01*
Y363000D02*
Y365100D01*
X347500Y381200D02*
Y384177D01*
X359047Y367759D02*
Y369653D01*
Y367759D02*
X359826Y366980D01*
X347500Y381200D02*
X359047Y369653D01*
X347500Y384177D02*
X347516Y384193D01*
X359826Y361000D02*
Y366980D01*
X366354Y361000D02*
X367724Y359630D01*
Y358449D02*
Y359630D01*
X16750Y358000D02*
X19250Y360500D01*
X16750Y298000D02*
X19250Y300500D01*
X16750Y298000D02*
X19250Y295500D01*
X24800Y269006D02*
X25515Y268291D01*
X24283Y230283D02*
Y230500D01*
X74954Y313000D02*
X77854Y315900D01*
X78400Y313900D02*
X179829D01*
X72500Y308000D02*
X78400Y313900D01*
X179829D02*
X180329Y313400D01*
X180600D01*
X158509Y311791D02*
X158700Y311600D01*
X157802Y311791D02*
X158509D01*
X157793Y311800D02*
X157802Y311791D01*
X398000Y199300D02*
Y210100D01*
X399700Y211800D01*
X398000Y199300D02*
X400200Y197100D01*
X385850Y294650D02*
X416300Y264200D01*
X392200Y297800D02*
Y297900D01*
X422000Y82324D02*
Y268000D01*
X392200Y297800D02*
X422000Y268000D01*
X403100Y302500D02*
X433300Y272300D01*
Y109100D02*
Y272300D01*
X237500Y184500D02*
X242600Y189600D01*
Y190100D01*
X153600Y161462D02*
Y185900D01*
X153138Y161000D02*
X153600Y161462D01*
X372100Y219800D02*
Y302400D01*
X368441Y216141D02*
X372100Y219800D01*
X320500Y354000D02*
X372100Y302400D01*
X284000Y111100D02*
X288500Y106600D01*
X284000Y111100D02*
Y130000D01*
X306100Y263600D02*
X329900Y287400D01*
X112700Y263600D02*
X306100D01*
X320786Y301614D02*
X329600Y292800D01*
X161354Y301614D02*
X320786D01*
X336500Y290500D02*
Y294000D01*
X339000Y296500D01*
Y199000D02*
Y296500D01*
X299970Y253970D02*
X336500Y290500D01*
X299970Y253970D02*
X299970D01*
X46960Y262960D02*
X65519D01*
X69346Y259133D01*
X71500Y281000D02*
X72100Y280400D01*
Y242100D02*
Y280400D01*
X65479Y258000D02*
X69800Y253679D01*
Y253500D02*
Y253679D01*
X81754Y311800D02*
X157793D01*
X79961Y341608D02*
X80900Y340669D01*
X275500Y304000D02*
X331500D01*
X339000Y296500D01*
X313700Y218300D02*
Y228246D01*
X324494Y239040D01*
X330200Y204826D02*
Y234900D01*
X324494Y239040D02*
X330200D01*
X311900Y228991D02*
X326089Y243180D01*
X330200D01*
X327683Y247320D02*
X330200D01*
X310000Y229637D02*
X327683Y247320D01*
X328812Y251312D02*
X330052D01*
X330170Y251430D01*
X308200Y230700D02*
X328812Y251312D01*
X305000Y230046D02*
X330427Y255473D01*
X361000Y356500D02*
Y360354D01*
X340961Y375500D02*
X341000Y375461D01*
X335900Y375500D02*
X340961D01*
X79764Y334900D02*
X81826D01*
X66705Y347960D02*
X79764Y334900D01*
X41960Y347960D02*
X66705D01*
X79019Y333100D02*
X81080D01*
X69159Y342960D02*
X79019Y333100D01*
X41960Y342960D02*
X69159D01*
X78273Y331300D02*
X80335D01*
X71573Y338000D02*
X78273Y331300D01*
X52000Y338000D02*
X71573D01*
X77528Y329500D02*
X79589D01*
X74068Y332960D02*
X77528Y329500D01*
X41960Y332960D02*
X74068D01*
X80600Y337600D02*
Y340369D01*
X80900Y340669D01*
X190601Y99399D02*
X205300Y84700D01*
X257500D01*
X354700Y294800D02*
X368000D01*
X344000Y305500D02*
X354700Y294800D01*
X394100Y303117D02*
Y307000D01*
Y303117D02*
X431500Y265717D01*
X355600Y297900D02*
X361200D01*
X344200Y309300D02*
X355600Y297900D01*
X355400Y302500D02*
X361300D01*
X344000Y313900D02*
X355400Y302500D01*
X355100Y307200D02*
X361700D01*
X344100Y318200D02*
X355100Y307200D01*
X129800Y227400D02*
X153600Y203600D01*
X129800Y227400D02*
Y260400D01*
X46900Y337900D02*
Y338100D01*
X44500Y340500D02*
X46900Y338100D01*
X65455Y352976D02*
X66960Y354481D01*
X41976Y352976D02*
X65455D01*
X68500Y366021D02*
Y366600D01*
X65459Y362980D02*
X68500Y366021D01*
X29700Y350500D02*
X32152Y352952D01*
X32352D01*
X29500Y350500D02*
X29700D01*
X22000Y358000D02*
X24500Y360500D01*
X335200Y318500D02*
Y318700D01*
X66500Y383800D02*
X71700Y389000D01*
X62800Y383800D02*
X66500D01*
X62500Y389300D02*
X67000D01*
X68500Y390800D01*
X66156Y391991D02*
X67146D01*
X68054Y392900D01*
X65982Y391818D02*
X66156Y391991D01*
X92640Y338669D02*
Y346440D01*
X97361Y348814D02*
X97700Y349153D01*
X92640Y346440D02*
X95014Y348814D01*
X97361D01*
X114851Y338669D02*
Y345551D01*
X117575Y348275D01*
X119033D02*
X119911Y349153D01*
X117575Y348275D02*
X119033D01*
X137062Y338669D02*
Y345562D01*
X141244Y348275D02*
X142122Y349153D01*
X139775Y348275D02*
X141244D01*
X137062Y345562D02*
X139775Y348275D01*
X159274Y338669D02*
Y345973D01*
X163638Y348458D02*
X164333Y349153D01*
X161758Y348458D02*
X163638D01*
X159274Y345973D02*
X161758Y348458D01*
X181485Y338669D02*
Y345985D01*
X185855Y348463D02*
X186544Y349153D01*
X183963Y348463D02*
X185855D01*
X181485Y345985D02*
X183963Y348463D01*
X203696Y338669D02*
Y345596D01*
X207878Y348275D02*
X208755Y349153D01*
X206375Y348275D02*
X207878D01*
X203696Y345596D02*
X206375Y348275D01*
X225907Y338669D02*
Y345507D01*
X230089Y348275D02*
X230967Y349153D01*
X225907Y345507D02*
X228675Y348275D01*
X230089D01*
X270329Y338669D02*
Y345229D01*
X274511Y348275D02*
X275389Y349153D01*
X273375Y348275D02*
X274511D01*
X270329Y345229D02*
X273375Y348275D01*
X250975D02*
X252300D01*
X248118Y338669D02*
Y345418D01*
X252300Y348275D02*
X253178Y349153D01*
X248118Y345418D02*
X250975Y348275D01*
X265374Y348546D02*
Y350962D01*
Y348546D02*
X266589Y347331D01*
X262035Y354300D02*
X265374Y350962D01*
X258465Y354300D02*
X262035D01*
X256600Y352435D02*
X258465Y354300D01*
X256600Y339464D02*
Y352435D01*
X276107Y336572D02*
X278361Y338825D01*
Y343610D02*
X278361Y343610D01*
Y351396D01*
X278361Y338825D02*
Y343610D01*
X278361Y351396D02*
X279865Y352900D01*
X274847Y335694D02*
X275725Y336572D01*
X274847Y335300D02*
Y335694D01*
X275725Y336572D02*
X276107D01*
X253707D02*
X256600Y339464D01*
X261581Y357300D02*
X263181Y355700D01*
X281681D02*
X283428Y353953D01*
X235276Y359200D02*
X262227D01*
X263927Y357500D01*
X282427D02*
X284174Y355753D01*
X264865Y359300D02*
X283172D01*
X260012Y364153D02*
X264865Y359300D01*
X263181Y355700D02*
X281681D01*
X207653Y357300D02*
X261581D01*
X244800Y364153D02*
X260012D01*
X263927Y357500D02*
X282427D01*
X283172Y359300D02*
X284920Y357553D01*
X200800Y364153D02*
X207653Y357300D01*
X231572Y362905D02*
X235276Y359200D01*
X215864Y353900D02*
X220400D01*
X217300Y339796D02*
Y351400D01*
X239900Y339407D02*
Y351400D01*
X238665Y353900D02*
X242800D01*
X244378Y352322D01*
X212200Y350236D02*
X215864Y353900D01*
X220400D02*
X222900Y351400D01*
X292279Y355753D02*
X296700Y360173D01*
X244378Y347331D02*
Y352322D01*
X239900Y339407D02*
X240637Y338669D01*
X208210Y335694D02*
X209088Y336572D01*
X208210Y335300D02*
Y335694D01*
X209088Y336572D02*
X209372D01*
X212200Y339400D01*
Y350236D01*
X217300Y339796D02*
X218426Y338669D01*
X222167Y347331D02*
X222900Y348064D01*
Y351400D01*
X185997Y335694D02*
X186875Y336572D01*
X186947D01*
X186370Y339530D02*
Y343073D01*
X186947Y336572D02*
X190400Y340025D01*
X186370Y343073D02*
X186544Y343247D01*
X190400Y340025D02*
Y352500D01*
X185997Y335300D02*
Y335694D01*
X190400Y352500D02*
X193600Y355700D01*
X197000D01*
X199955Y352745D01*
Y347331D02*
Y352745D01*
X125265Y335300D02*
X126100Y336135D01*
Y351029D02*
X127100Y352029D01*
X126100Y336135D02*
Y351029D01*
X127100Y352029D02*
Y352300D01*
X147478Y335300D02*
X148300Y336122D01*
Y350000D02*
X150000Y351700D01*
X148300Y336122D02*
Y350000D01*
X167305Y341372D02*
Y351441D01*
X167300Y341367D02*
X167305Y341372D01*
Y351441D02*
X171465Y355600D01*
X169690Y348890D02*
X173100Y352300D01*
X169690Y335300D02*
Y348890D01*
X175500Y355600D02*
X177744Y353356D01*
X171465Y355600D02*
X175500D01*
X123549Y356600D02*
X169919D01*
X177744Y347331D02*
Y353356D01*
X177472Y364153D02*
X178800D01*
X169919Y356600D02*
X177472Y364153D01*
X178800D02*
X178824Y364176D01*
X145400Y339521D02*
Y351236D01*
X141572Y335694D02*
X145400Y339521D01*
Y351236D02*
X148765Y354600D01*
X150325Y337201D02*
X151793Y338669D01*
X150325Y333300D02*
Y337201D01*
X147324Y330300D02*
X150325Y333300D01*
X148765Y354600D02*
X152700D01*
X155199Y352101D01*
Y347665D02*
Y352101D01*
Y347665D02*
X155533Y347331D01*
X122804Y358400D02*
X151047D01*
X156800Y364153D01*
X119360Y335694D02*
X123600Y339934D01*
Y352336D02*
X126065Y354800D01*
X123600Y339934D02*
Y352336D01*
X133322Y347331D02*
Y352762D01*
X131284Y354800D02*
X133322Y352762D01*
X126065Y354800D02*
X131284D01*
X122449Y355500D02*
X123549Y356600D01*
X121704Y357300D02*
X122804Y358400D01*
X122058Y360200D02*
X131200D01*
X120958Y359100D02*
X122058Y360200D01*
X131200D02*
X134800Y363800D01*
X128900Y334088D02*
Y337987D01*
X125012Y330200D02*
X128900Y334088D01*
Y337987D02*
X129582Y338669D01*
X88535Y323100D02*
X256400D01*
X275500Y304000D01*
X80335Y331300D02*
X88535Y323100D01*
X81080Y333100D02*
X89280Y324900D01*
X260400D01*
X271900Y313400D01*
X81826Y334900D02*
X90026Y326700D01*
X286992D01*
X296328Y336036D01*
X212700Y329600D02*
Y329871D01*
X283400Y348504D02*
Y351435D01*
Y348504D02*
X287627D01*
X284920Y357553D02*
X291534D01*
X284174Y355753D02*
X292279D01*
X283428Y353953D02*
X297632D01*
X281936Y352900D02*
X283400Y351435D01*
X279865Y352900D02*
X281936D01*
X287627Y348504D02*
X288800Y347331D01*
X284665Y361500D02*
X286812Y359353D01*
X290788D01*
X293573Y362138D01*
X279153Y361500D02*
X284665D01*
X293573Y362138D02*
Y363645D01*
X297632Y353953D02*
X298929Y355250D01*
X231572Y362905D02*
Y363322D01*
X230717Y364176D02*
X231572Y363322D01*
X222824Y364176D02*
X230717D01*
X291534Y357553D02*
X299200Y365219D01*
X278302Y362352D02*
X279153Y361500D01*
X280753Y331853D02*
Y335300D01*
X279200Y330300D02*
X280753Y331853D01*
X258540Y331911D02*
Y335300D01*
X257100Y330471D02*
X258540Y331911D01*
X257100Y330200D02*
Y330471D01*
X236328Y332328D02*
Y335300D01*
X234400Y330400D02*
X236328Y332328D01*
X214100Y331271D02*
Y335315D01*
X212700Y329871D02*
X214100Y331271D01*
X191903Y331703D02*
Y335300D01*
X190300Y330100D02*
X191903Y331703D01*
X87789Y321300D02*
X237365D01*
X245265Y313400D01*
X271900D02*
Y313400D01*
X68979Y319500D02*
X219100D01*
X224800Y313800D01*
X200000Y317700D02*
X203700Y314000D01*
X65779Y317700D02*
X200000D01*
X298929Y355250D02*
X299200D01*
X299111Y360173D02*
X299200Y360262D01*
X296700Y360173D02*
X299111D01*
X293573Y364661D02*
X299200Y370287D01*
X266824Y364176D02*
X274300D01*
X278302Y362352D02*
Y362352D01*
X276986Y363667D02*
X278302Y362352D01*
X274809Y363667D02*
X276986D01*
X274300Y364176D02*
X274809Y363667D01*
X299200Y365219D02*
Y365275D01*
X288800Y364153D02*
Y364800D01*
X142300Y372900D02*
X145500Y376100D01*
X142300Y370605D02*
Y372900D01*
X145500Y376100D02*
X146353D01*
X149300Y373153D01*
Y370605D02*
Y373153D01*
X65519Y322960D02*
X68979Y319500D01*
X39500Y315500D02*
X41960Y317960D01*
X65519D01*
X65779Y317700D01*
X172536Y337201D02*
X174004Y338669D01*
X172536Y333299D02*
Y337201D01*
X169637Y330400D02*
X172536Y333299D01*
X168200Y330400D02*
X169637D01*
X145300Y330300D02*
X147324D01*
X119070Y342406D02*
X119911Y343247D01*
X119070Y339322D02*
Y342406D01*
X124400Y330200D02*
X125012D01*
X85160Y337882D02*
Y338669D01*
Y337882D02*
X92742Y330300D01*
X100700D01*
X105902Y337201D02*
X107371Y338669D01*
X105902Y333303D02*
Y337201D01*
X102899Y330300D02*
X105902Y333303D01*
X100700Y330300D02*
X102899D01*
X99728Y359100D02*
X120958D01*
X100473Y357300D02*
X121704D01*
X101219Y355500D02*
X122449D01*
X102353Y336000D02*
X103200Y336847D01*
X102353Y336000D02*
X103053Y335300D01*
X100672Y339218D02*
Y352207D01*
X97147Y335694D02*
X100672Y339218D01*
X108534Y347331D02*
X111111D01*
X105700Y350165D02*
X108534Y347331D01*
X102164Y353700D02*
X104235D01*
X100672Y352207D02*
X102164Y353700D01*
X99672Y353953D02*
X101219Y355500D01*
X84933Y353953D02*
X99672D01*
X82785Y356100D02*
X84933Y353953D01*
X98926Y355753D02*
X100473Y357300D01*
X85785Y355753D02*
X98926D01*
X80585Y360952D02*
X85785Y355753D01*
X98181Y357553D02*
X99728Y359100D01*
X86747Y357553D02*
X98181D01*
X79900Y364400D02*
X86747Y357553D01*
X98982Y360900D02*
X109547D01*
X112574Y363926D01*
X97435Y359353D02*
X98982Y360900D01*
X88812Y359353D02*
X97435D01*
X86000Y362164D02*
X88812Y359353D01*
X105700Y350165D02*
Y352236D01*
X104235Y353700D02*
X105700Y352236D01*
X103200Y336847D02*
Y351200D01*
X96428Y339872D02*
X96900Y339400D01*
X105902Y340138D02*
X107371Y338669D01*
X79589Y329500D02*
X87789Y321300D01*
X81500Y309000D02*
X136400D01*
X65500Y293000D02*
X81500Y309000D01*
X67954Y298000D02*
X81754Y311800D01*
X156400Y303300D02*
X185400D01*
X187500Y305400D01*
X137214Y284114D02*
X156400Y303300D01*
X137214Y283286D02*
Y284114D01*
Y283286D02*
X139175Y281325D01*
X120500Y303900D02*
X122700Y306100D01*
X120500Y281637D02*
Y303900D01*
X83300Y305800D02*
X116500D01*
X65500Y288000D02*
X83300Y305800D01*
X81100Y298600D02*
X86500D01*
X65500Y283000D02*
X81100Y298600D01*
X208700Y343192D02*
X208755Y343247D01*
X208700Y339500D02*
Y343192D01*
X104900Y271500D02*
X111300Y277900D01*
X111125Y294200D02*
X111300Y294025D01*
Y277900D02*
Y294025D01*
X116900Y280800D02*
Y294100D01*
X116800Y294200D02*
X116900Y294100D01*
X106700Y270600D02*
X116900Y280800D01*
X252600Y342670D02*
X253178Y343247D01*
X252600Y339100D02*
Y342670D01*
X94100Y272189D02*
Y294200D01*
Y272189D02*
X97550Y268739D01*
X99775Y260225D02*
Y294200D01*
X105450D02*
X105600Y294050D01*
Y274900D02*
Y294050D01*
X102800Y259746D02*
Y272100D01*
X105600Y274900D01*
X104900Y260191D02*
Y271500D01*
X106700Y260937D02*
Y270600D01*
X71100Y356100D02*
X82785D01*
X75152Y360952D02*
X80585D01*
X112574Y363926D02*
X112800Y364153D01*
X86000Y362164D02*
Y366145D01*
X84311Y367835D02*
X86000Y366145D01*
X84311Y367835D02*
Y367991D01*
X134800Y363800D02*
Y364153D01*
X105300Y363700D02*
X105526Y363926D01*
X112574D01*
X281300Y364200D02*
X281324Y364176D01*
X288776D01*
X288800Y364153D01*
X266800D02*
X266824Y364176D01*
X237300Y364200D02*
X237324Y364176D01*
X244776D01*
X244800Y364153D01*
X222800D02*
X222824Y364176D01*
X193300Y364200D02*
X193324Y364176D01*
X200776D01*
X200800Y364153D01*
X178824Y364176D02*
X186276D01*
X186300Y364200D01*
X149300Y364700D02*
X149574Y364426D01*
X156526D01*
X156800Y364153D01*
X134800D02*
X135074Y364426D01*
X142026D01*
X142300Y364700D01*
X90800Y364153D02*
X91026Y363926D01*
X98074D01*
X98300Y363700D01*
X108500Y261682D02*
Y269637D01*
X120500Y281637D01*
X111600Y268600D02*
X111700Y268700D01*
X104900Y260191D02*
X112650Y252441D01*
X106700Y260937D02*
X114450Y253187D01*
X108500Y261682D02*
X116250Y253932D01*
Y211659D02*
Y253932D01*
X97550Y259904D02*
Y268739D01*
Y259904D02*
X107250Y250204D01*
X86800Y275600D02*
X94800Y267600D01*
X86800Y275600D02*
Y293300D01*
X87000Y253500D02*
Y268000D01*
X80500Y254971D02*
Y288500D01*
X76782Y242124D02*
Y263481D01*
X77500Y264199D02*
Y286000D01*
X74500Y238500D02*
Y283500D01*
X39600Y176700D02*
Y180400D01*
X39500Y190500D02*
X39890D01*
X33561Y187960D02*
X41960D01*
X42000Y188000D01*
X41945Y192555D02*
Y192555D01*
X39500Y180500D02*
X39600Y180400D01*
X39890Y190500D02*
X41945Y192555D01*
X39209Y180791D02*
X39500Y180500D01*
X97147Y335300D02*
Y335694D01*
X96428Y339872D02*
Y342369D01*
X77280Y327600D02*
X79980Y324900D01*
X80300D01*
X42000Y293000D02*
X65500D01*
X42000Y298000D02*
X67954D01*
X141281Y339322D02*
Y339737D01*
X274200Y157700D02*
X280500Y164000D01*
X94200Y157700D02*
X274200D01*
X280500Y164000D02*
Y214522D01*
X276639Y166250D02*
X277039Y166650D01*
X170600Y119000D02*
Y154600D01*
X170700Y154700D01*
X288500Y118800D02*
X319600Y87700D01*
X279600Y106300D02*
X286000Y99900D01*
X279600Y106300D02*
Y132700D01*
X114425Y202575D02*
X127100Y189900D01*
X114319Y202575D02*
X114425D01*
X127100Y189900D02*
X159014D01*
X39500Y265300D02*
X41600Y263200D01*
Y263000D02*
Y263200D01*
X39500Y265300D02*
Y265500D01*
X13000Y108500D02*
Y238900D01*
Y108500D02*
X22000Y99500D01*
X13000Y238900D02*
X19500Y245400D01*
X11200Y257200D02*
X19500Y265500D01*
X11200Y104300D02*
Y257200D01*
Y104300D02*
X16000Y99500D01*
X9400Y102565D02*
Y275400D01*
Y102565D02*
X14965Y97000D01*
X24000D01*
X9400Y275400D02*
X19500Y285500D01*
X7600Y293600D02*
X19500Y305500D01*
X7600Y99354D02*
Y293600D01*
Y99354D02*
X11754Y95200D01*
X5800Y311800D02*
X19500Y325500D01*
X5800Y98609D02*
Y311800D01*
Y98609D02*
X11009Y93400D01*
X15577Y235200D02*
X18937Y231840D01*
X15500Y235200D02*
X15577D01*
X18937Y231474D02*
Y231840D01*
Y231474D02*
X19500Y230911D01*
X17100Y237900D02*
Y238200D01*
Y237900D02*
X19500Y235500D01*
X17100Y238200D02*
X17200D01*
X19500Y240500D01*
X22000Y237900D02*
Y238000D01*
X24500Y240500D01*
X21960Y243260D02*
Y252960D01*
X21800Y243100D02*
X21960Y243260D01*
Y252960D02*
X24500Y255500D01*
X18500Y250500D02*
X19000Y251000D01*
X15500Y250500D02*
X18500D01*
X19000Y251000D02*
X19500Y250500D01*
X16900Y258000D02*
X17000D01*
X19500Y260500D01*
X17000Y258000D02*
X19500Y255500D01*
X21900Y257900D02*
Y258050D01*
X24350Y260500D01*
X22000Y263100D02*
Y333000D01*
X15400Y270500D02*
X19500D01*
X31900Y272600D02*
Y272700D01*
X29800Y270500D02*
X31900Y272600D01*
X32200Y268000D02*
X32300D01*
X29700Y265500D02*
X32200Y268000D01*
X34709Y265500D02*
X36909Y267700D01*
X37000D01*
X42200Y273000D02*
Y273200D01*
X44500Y275500D01*
X41900Y268100D02*
X42000D01*
X39500Y270500D02*
X41900Y268100D01*
X248100Y71900D02*
X266000D01*
X237500Y82500D02*
X248100Y71900D01*
X274400Y75100D02*
X277000Y72500D01*
X252900Y75100D02*
X274400D01*
X471053Y50047D02*
Y55800D01*
Y50047D02*
X471200Y49900D01*
X368900Y54500D02*
Y67400D01*
Y54500D02*
X376800Y46600D01*
X32000Y348000D02*
X34500Y350500D01*
X32000Y343000D02*
Y348000D01*
X29500Y340500D02*
X32000Y343000D01*
X16500Y378500D02*
X19500Y375500D01*
X37100Y333100D02*
Y333100D01*
X29500Y335500D02*
X31960Y333040D01*
X37040D01*
X37100Y333100D01*
X39500Y305500D02*
X42000Y303000D01*
X67600D01*
X29500Y300500D02*
X34500D01*
X39500Y260500D02*
Y260700D01*
X37100Y263100D02*
X39500Y260700D01*
X52000Y198200D02*
Y201479D01*
X44500Y205500D02*
X46960Y203040D01*
X50439D01*
X52000Y201479D01*
X349700Y136900D02*
X363000Y150200D01*
Y175000D01*
X339000Y199000D02*
X363000Y175000D01*
X202200Y136900D02*
X349700D01*
X202000Y137100D02*
X202200Y136900D01*
X46700Y253100D02*
X46800D01*
X44500Y250900D02*
X46700Y253100D01*
X66000Y248000D02*
X68300Y245700D01*
X68800D01*
X44500Y250500D02*
Y250900D01*
X47000Y258000D02*
X65479D01*
X44500Y255500D02*
X47000Y258000D01*
X47000Y218000D02*
X51800D01*
X51800Y218000D01*
X44500Y220500D02*
X47000Y218000D01*
X46960Y233040D02*
X51690D01*
X51800Y233150D01*
X44500Y235500D02*
X46960Y233040D01*
Y242960D02*
X67270D01*
X67327Y242902D01*
X44500Y240500D02*
X46960Y242960D01*
X44500Y190500D02*
X47000Y188000D01*
X44500Y185500D02*
X47000Y188000D01*
X42000Y278000D02*
X44500Y280500D01*
X39500Y275500D02*
X42000Y278000D01*
X34500Y270500D02*
X39500Y275500D01*
X34500Y285500D02*
X39500Y290500D01*
X34500D02*
X37000Y293000D01*
X34500Y305500D02*
X37000Y303000D01*
X39500Y335500D02*
X44500Y340500D01*
X29500Y320500D02*
X31960Y322960D01*
X37040D01*
X39500Y320500D01*
X41640Y363040D02*
X45519D01*
X39500Y360500D02*
Y360900D01*
X41640Y363040D01*
X45519D02*
X47023Y364544D01*
X37040Y357960D02*
Y376519D01*
Y357960D02*
X39500Y355500D01*
X42000Y373000D02*
X44500Y370500D01*
X39500Y375500D02*
X42000Y373000D01*
X39500Y365500D02*
X44500Y370500D01*
X47023Y386477D02*
X55246Y394700D01*
X47023Y364544D02*
Y386477D01*
X34209Y210791D02*
X34500Y210500D01*
X29500Y215500D02*
X29791Y215209D01*
X19500Y195500D02*
Y200500D01*
X34500Y185500D02*
X34791Y185209D01*
X35815D01*
X39209Y181815D01*
Y180791D02*
Y181815D01*
X31960Y179481D02*
Y181917D01*
X29500Y185500D02*
X29791Y185209D01*
Y184086D02*
X31960Y181917D01*
X29791Y184086D02*
Y185209D01*
X412792Y75450D02*
X413400D01*
X32040Y184481D02*
X33481Y183040D01*
X413400Y75450D02*
X418050D01*
X32040Y184481D02*
Y186935D01*
X418050Y75450D02*
X422400Y71100D01*
X412742Y75400D02*
X412792Y75450D01*
X33481Y183040D02*
X35439D01*
X103000Y161500D02*
X103100Y161400D01*
X103000Y161500D02*
Y167600D01*
X175300Y123100D02*
Y154800D01*
X68940Y182960D02*
X94200Y157700D01*
X175400Y161400D02*
Y168800D01*
X170600Y161300D02*
Y168800D01*
X431500Y107061D02*
Y265717D01*
X335168Y327407D02*
Y327407D01*
X314700Y347875D02*
X335168Y327407D01*
X344100Y318200D02*
X344100D01*
X312900Y345200D02*
X335000Y323100D01*
X310877Y343023D02*
X335200Y318700D01*
X309077Y340323D02*
X335100Y314300D01*
X344200Y309300D02*
X344200D01*
X357500Y386507D02*
Y390550D01*
X351543Y385657D02*
X352693D01*
X351453Y384193D02*
Y385567D01*
X351543Y385657D01*
X416300Y82524D02*
X416300Y264200D01*
X416300Y82500D02*
Y82524D01*
X436552Y61100D02*
X444750Y69298D01*
X435900Y61100D02*
X436552D01*
X427552D02*
X435750Y69298D01*
X444750D02*
Y97650D01*
X435750Y69298D02*
Y102811D01*
X433300Y109100D02*
X444750Y97650D01*
X431500Y107061D02*
X435750Y102811D01*
X426900Y61100D02*
X427552D01*
X449400Y51100D02*
X449500D01*
X454200Y55800D02*
X465147D01*
X449500Y51100D02*
X454200Y55800D01*
X444900Y46600D02*
X449400Y51100D01*
X318800Y85800D02*
X355300D01*
X361400Y79700D01*
X388800D01*
X360500Y87700D02*
X365400Y82800D01*
X319600Y87700D02*
X360500D01*
X376800Y46600D02*
X444900D01*
X453900Y61500D02*
X465047D01*
X393400Y63800D02*
X400450Y56750D01*
X449550D01*
X453900Y61100D01*
X317340Y83960D02*
X351540D01*
X360100Y75400D02*
X412742D01*
X351540Y83960D02*
X360100Y75400D01*
X361700Y70600D02*
X399375D01*
X350277Y82023D02*
X361700Y70600D01*
X403225Y66750D02*
X427050D01*
X431400Y71100D01*
X399375Y70600D02*
X403225Y66750D01*
X344000Y286993D02*
Y298500D01*
X318500Y353454D02*
X341400Y330554D01*
Y301100D02*
X344000Y298500D01*
X341400Y301100D02*
Y330554D01*
X316500Y352909D02*
X339300Y330109D01*
Y300300D02*
Y330109D01*
Y300300D02*
X342200Y297400D01*
Y253200D02*
Y297400D01*
Y253200D02*
X356300Y239100D01*
X344000Y286993D02*
X354892Y276100D01*
X34500Y379046D02*
X53754Y398300D01*
X66960Y360946D02*
X74107Y368093D01*
X31960Y353040D02*
X32000Y353000D01*
X16750Y298000D02*
X17000D01*
X19250Y300500D02*
X19500D01*
X16750Y298000D02*
X16750D01*
X24500Y270500D02*
X24791Y270209D01*
X24800Y269006D02*
Y269100D01*
X24791Y269109D02*
X24800Y269100D01*
X24791Y269109D02*
Y270209D01*
X24500Y265500D02*
X24791Y265791D01*
Y267456D01*
X24500Y340089D02*
Y340500D01*
X22000Y338000D02*
X24500Y340500D01*
X29600Y285500D02*
X32200Y282900D01*
X29500Y285500D02*
X29600D01*
X31900Y288000D02*
X32000D01*
X29500Y290400D02*
X31900Y288000D01*
X29500Y290400D02*
Y290500D01*
Y270500D02*
X29800D01*
X24350Y260500D02*
X24500D01*
X29500Y265500D02*
X29700D01*
X24500Y270500D02*
X29500Y275500D01*
X346976Y76976D02*
X347000Y77000D01*
X341524Y76976D02*
X346976D01*
X303800Y97500D02*
X317340Y83960D01*
X304700Y99900D02*
X318800Y85800D01*
X303000Y95000D02*
X315977Y82023D01*
X350277D01*
X265611Y104389D02*
X275000Y95000D01*
X266811Y106189D02*
X275500Y97500D01*
X43111Y106189D02*
X266811D01*
X42167Y104389D02*
X265611D01*
X30500Y116056D02*
X42167Y104389D01*
X170700Y175900D02*
Y182254D01*
X175300Y176200D02*
Y180200D01*
X163150Y171900D02*
X222500D01*
X159600Y175450D02*
X163150Y171900D01*
X159600Y175450D02*
Y189314D01*
X228150Y166250D02*
X276639D01*
X222500Y171900D02*
X228150Y166250D01*
X161700Y193800D02*
X175300Y180200D01*
X128600Y191700D02*
X161254D01*
X170700Y182254D01*
X155100Y193800D02*
X161700D01*
X124500Y224400D02*
Y230900D01*
Y224400D02*
X155100Y193800D01*
X148000Y213500D02*
X158000Y203500D01*
X159014Y189900D02*
X159600Y189314D01*
X121300Y199000D02*
Y229600D01*
Y199000D02*
X128600Y191700D01*
X119300Y231600D02*
X121300Y229600D01*
X118800Y236600D02*
Y241000D01*
Y236600D02*
X124500Y230900D01*
X114450Y212404D02*
Y253187D01*
X112650Y213150D02*
Y252441D01*
X110850Y214035D02*
Y251696D01*
X109050Y214781D02*
Y250950D01*
X107250Y215526D02*
Y250204D01*
X99724Y208000D02*
X107250Y215526D01*
X100469Y206200D02*
X109050Y214781D01*
X101215Y204400D02*
X110850Y214035D01*
X102100Y202600D02*
X112650Y213150D01*
X102846Y200800D02*
X114450Y212404D01*
X102000Y197409D02*
X116250Y211659D01*
X104500Y232500D02*
Y248871D01*
X79282Y253482D02*
Y253753D01*
X80500Y254971D01*
X76782Y263481D02*
X77500Y264199D01*
X76782Y242124D02*
X77500Y241406D01*
Y241000D02*
Y241406D01*
X100000Y238500D02*
X101163Y239663D01*
X81000Y238500D02*
X100000D01*
X38300Y260500D02*
X39500D01*
X34791Y256991D02*
X38300Y260500D01*
X38521Y258000D02*
X41700D01*
X36980Y256459D02*
X38521Y258000D01*
X35479Y253000D02*
X36980Y254501D01*
Y256459D01*
X31960Y247960D02*
Y251439D01*
X33521Y253000D02*
X35479D01*
X29500Y245500D02*
X31960Y247960D01*
Y251439D02*
X33521Y253000D01*
X34500Y255500D02*
X34791Y255791D01*
Y256991D01*
X32109Y257863D02*
X32300Y258054D01*
X32109Y257102D02*
Y257863D01*
X79000Y215600D02*
X82664D01*
X85457Y218393D01*
X34500Y245500D02*
X36900Y247900D01*
X37100D01*
X32040Y254561D02*
Y257033D01*
X32109Y257102D01*
X24500Y365500D02*
X29500D01*
X27040Y363040D02*
X29500Y365500D01*
X27040Y357960D02*
Y363040D01*
Y357960D02*
X29500Y355500D01*
X24500Y345500D02*
Y350500D01*
X29500Y335500D02*
Y340500D01*
X24500Y325500D02*
Y330500D01*
X29500Y315500D02*
Y320500D01*
X24500Y305500D02*
Y310500D01*
X29500Y295500D02*
Y300500D01*
X24500Y285500D02*
Y290500D01*
X29500Y275500D02*
Y280500D01*
X29791Y250791D02*
Y252312D01*
X32040Y254561D01*
X29500Y250500D02*
X29791Y250791D01*
X29400Y255600D02*
Y260400D01*
X29500Y260500D01*
X29400Y255600D02*
X29500Y255500D01*
X15500Y330500D02*
X19500D01*
X16000Y310500D02*
X19500D01*
X17000Y278000D02*
X19500Y280500D01*
X17000Y278000D02*
X19500Y275500D01*
X16500Y318000D02*
X16750D01*
X15500Y290500D02*
X19500D01*
X68500Y231194D02*
Y231450D01*
X66051Y233040D02*
X67211Y234200D01*
X80665D01*
X74561Y231450D02*
X74948Y231837D01*
X80665Y234200D02*
X81365Y233500D01*
X80483Y231837D02*
X83820Y228500D01*
X74948Y231837D02*
X80483D01*
X286000Y99900D02*
X304700D01*
X275500Y97500D02*
X303800D01*
X449400Y71100D02*
X451767D01*
X455267Y67600D02*
X465147D01*
X451767Y71100D02*
X455267Y67600D01*
X465047Y61500D02*
X465147Y61400D01*
X471053D02*
Y67600D01*
Y55800D02*
Y61400D01*
X42040Y182960D02*
X68940D01*
X66960Y354481D02*
Y360946D01*
X67600Y327600D02*
X77280D01*
X42040Y322960D02*
X65519D01*
X33024Y313000D02*
X74954D01*
X42209Y308000D02*
X72500D01*
X58501Y362980D02*
X65459D01*
X44500Y360500D02*
X46960Y358040D01*
X55519D01*
X57000Y359521D01*
Y361479D01*
X58501Y362980D01*
X39500Y325500D02*
X42040Y322960D01*
X252635Y335694D02*
X253513Y336572D01*
X252635Y335300D02*
Y335694D01*
X253513Y336572D02*
X253707D01*
X230422Y335694D02*
X231629Y336900D01*
X230422Y335300D02*
Y335694D01*
X231629Y336900D02*
X231635D01*
X214100Y335315D02*
X214115Y335300D01*
X141572Y335300D02*
Y335694D01*
X119360Y335300D02*
Y335694D01*
X128113Y340378D02*
X128400Y340665D01*
X128113Y340138D02*
Y340378D01*
Y340138D02*
X129582Y338669D01*
X297206Y343247D02*
X297600D01*
X296328Y342369D02*
X297206Y343247D01*
X296328Y336036D02*
Y342369D01*
X275389Y343247D02*
X275400Y343236D01*
Y339400D02*
Y343236D01*
X141281Y339737D02*
X142122Y340579D01*
Y343247D01*
X97306D02*
X97700D01*
X96428Y342369D02*
X97306Y343247D01*
X297206Y349153D02*
X297600D01*
X292540Y344486D02*
X297206Y349153D01*
X292540Y338669D02*
Y344486D01*
X39500Y340500D02*
X41960Y342960D01*
X267500Y168500D02*
X275000D01*
X267000Y169000D02*
X267500Y168500D01*
X277500Y171000D02*
Y174500D01*
X274156Y214239D02*
X274517Y214600D01*
X273965Y171000D02*
X274156Y171191D01*
X275000Y168500D02*
X277500Y171000D01*
X274156Y171191D02*
Y214239D01*
X102000Y191000D02*
Y197409D01*
X70005Y193040D02*
X77764Y200800D01*
X102846D01*
X46960Y193040D02*
X70005D01*
X70000Y197000D02*
X75600Y202600D01*
X102100D01*
X39500Y205500D02*
X39507D01*
X42007Y208000D02*
X42015D01*
X39507Y205500D02*
X42007Y208000D01*
X100893Y218393D02*
X103500Y221000D01*
X85457Y218393D02*
X100893D01*
X47000Y223000D02*
X66500D01*
X81500Y208000D02*
X99724D01*
X66500Y223000D02*
X81500Y208000D01*
X47000Y213000D02*
X66000D01*
X72800Y206200D02*
X100469D01*
X66000Y213000D02*
X72800Y206200D01*
X70100Y204400D02*
X101215D01*
X46960Y208040D02*
X66460D01*
X70100Y204400D01*
X37000Y218009D02*
Y218018D01*
X34500Y215509D02*
X37000Y218009D01*
X34500Y215500D02*
Y215509D01*
X39500Y220500D02*
X42000Y218000D01*
X29500Y230500D02*
X32000Y233000D01*
X37000D01*
X44500Y200500D02*
X47000Y198000D01*
X35519Y212960D02*
X37000Y211479D01*
X38521Y203000D02*
X42000D01*
X33561Y212960D02*
X35519D01*
X37000Y204521D02*
Y211479D01*
Y204521D02*
X38521Y203000D01*
X32040Y205505D02*
X32040Y205505D01*
Y204481D02*
Y205505D01*
Y204481D02*
X33521Y203000D01*
X30240Y203735D02*
Y204349D01*
Y203735D02*
X32040Y201936D01*
Y189481D02*
Y201936D01*
X33521Y203000D02*
X35479D01*
X37000Y201479D01*
Y199521D02*
Y201479D01*
X29500Y205089D02*
Y205500D01*
Y205089D02*
X30240Y204349D01*
X32040Y205505D02*
Y207960D01*
X39500Y210500D02*
X42000Y213000D01*
X31960Y214561D02*
Y223040D01*
Y214561D02*
X33561Y212960D01*
X29500Y225500D02*
X31960Y223040D01*
X275000Y95000D02*
X303000D01*
X32300Y117000D02*
X43111Y106189D01*
X211123Y92713D02*
X211336Y92500D01*
X296000D02*
X317500Y71000D01*
X211336Y92500D02*
X296000D01*
X236000Y95500D02*
X251000D01*
X233500Y98000D02*
X236000Y95500D01*
X268500Y79000D02*
X275500D01*
X258500Y89000D02*
X268500Y79000D01*
X205000Y88500D02*
X244000D01*
X191626Y101874D02*
X205000Y88500D01*
X265000Y88467D02*
Y88500D01*
Y88467D02*
X271467Y82000D01*
X288500D01*
X41126Y101874D02*
X191626D01*
X275500Y79000D02*
X288000Y66500D01*
X288500Y82000D02*
X299500Y71000D01*
X40101Y99399D02*
X190601D01*
X39144Y97089D02*
X189411D01*
X204000Y82500D01*
X237500D01*
X277000Y72500D02*
X293500Y56000D01*
X187757Y95289D02*
X203023Y80023D01*
X174600Y89400D02*
X190000Y74000D01*
X38398Y95289D02*
X187757D01*
X181300Y91200D02*
X199000Y73500D01*
X38000Y93000D02*
X187500D01*
X36846Y91200D02*
X181300D01*
X36100Y89400D02*
X174600D01*
X187500Y93000D02*
X203500Y77000D01*
X355000Y169500D02*
Y180026D01*
X330200Y204826D02*
X355000Y180026D01*
X345000Y169500D02*
Y187000D01*
X311900Y217554D02*
X335000Y194454D01*
Y169500D02*
Y194454D01*
X313700Y218300D02*
X345000Y187000D01*
X140787Y281047D02*
X161354Y301614D01*
X39500Y330500D02*
X41960Y332960D01*
X34500Y310500D02*
X37000Y308000D01*
X32000Y315000D02*
X32040Y315040D01*
Y316519D01*
X33521Y318000D01*
X37000D01*
X29442Y312988D02*
X29495Y313040D01*
X30519D01*
X29911Y310500D02*
X30651Y311240D01*
X31264D01*
X32000Y314521D02*
Y315000D01*
X31264Y311240D02*
X33024Y313000D01*
X29500Y310500D02*
X29911D01*
X30519Y313040D02*
X32000Y314521D01*
X28012Y312988D02*
X29442D01*
X27040Y307960D02*
X29500Y305500D01*
X27040Y307960D02*
Y312016D01*
X24500Y310500D02*
X24791Y310791D01*
X27040Y312016D02*
X28012Y312988D01*
X24791Y310791D02*
Y312312D01*
X27688Y315209D01*
X29209D01*
X29500Y315500D01*
X354892Y276100D02*
X356300D01*
X39500Y345500D02*
X41960Y347960D01*
X99775Y260225D02*
X109050Y250950D01*
X102800Y259746D02*
X110850Y251696D01*
X100500Y228500D02*
X104500Y232500D01*
X83820Y228500D02*
X100500D01*
X81365Y233500D02*
X87000D01*
X61960Y234561D02*
Y236519D01*
X92000Y248500D02*
X97000Y243500D01*
X81000Y245000D02*
X84500Y248500D01*
X92000D01*
X288522Y218478D02*
X297500Y209500D01*
X302200D02*
X302250Y209550D01*
X297500Y209500D02*
X302200D01*
X298000Y213500D02*
X302250D01*
X256800Y214600D02*
X262478Y220278D01*
X291222D01*
X298000Y213500D01*
X266583Y218478D02*
X288522D01*
X262705Y214600D02*
X266583Y218478D01*
X262705Y214600D02*
X267500Y209805D01*
Y176500D02*
Y209805D01*
X256800Y185800D02*
Y214600D01*
X247500Y176500D02*
X256800Y185800D01*
X29500Y360500D02*
X29791Y360209D01*
X34500Y355500D02*
Y355911D01*
X29791Y358688D02*
Y360209D01*
X32040Y358984D02*
X33760Y357264D01*
Y356651D02*
X34500Y355911D01*
X29791Y358688D02*
X31960Y356519D01*
X32040Y358984D02*
Y363040D01*
X33760Y356651D02*
Y357264D01*
X31960Y353040D02*
Y356519D01*
X34500Y355500D02*
X37000Y353000D01*
X34500Y375500D02*
Y379046D01*
Y275500D02*
X37000Y278000D01*
X34500Y280500D02*
X37000Y283000D01*
X34500Y295500D02*
X37000Y298000D01*
X161416Y228502D02*
X293498D01*
X142000Y225500D02*
X158414D01*
X161416Y228502D01*
X349492Y360508D02*
Y370799D01*
Y360508D02*
X349500Y360500D01*
X325500Y375000D02*
Y375406D01*
X305000Y169500D02*
Y230046D01*
X308200Y215800D02*
Y230700D01*
X315000Y169500D02*
Y209000D01*
X308200Y215800D02*
X315000Y209000D01*
X310000Y216909D02*
Y229637D01*
X311900Y217554D02*
Y228991D01*
X325000Y169500D02*
Y201909D01*
X310000Y216909D02*
X325000Y201909D01*
X67979Y230673D02*
X68500Y231194D01*
X63481Y233040D02*
X66051D01*
X67979Y230500D02*
Y230673D01*
X39500Y235482D02*
Y235500D01*
Y235482D02*
X41982Y233000D01*
Y232982D02*
Y233000D01*
X34500Y235500D02*
X37000Y238000D01*
X50519Y237960D02*
X60519D01*
X50479Y238000D02*
X50519Y237960D01*
X46960Y228040D02*
X65519D01*
X61960Y234561D02*
X63481Y233040D01*
X65519Y228040D02*
X67979Y230500D01*
X44500D02*
X46960Y228040D01*
X60519Y237960D02*
X61960Y236519D01*
X42000Y238000D02*
X50479D01*
X44500Y225500D02*
X47000Y223000D01*
Y248000D02*
X66000D01*
X47000Y273000D02*
X68500D01*
X140510Y281325D02*
X140787Y281047D01*
X139175Y281325D02*
X140510D01*
X34500Y220500D02*
X37000Y223000D01*
X326500Y59000D02*
Y71000D01*
X203023Y80023D02*
X209223D01*
X223024Y77476D02*
X228296D01*
X228500Y77273D01*
X209223Y80023D02*
X209231Y80031D01*
X203500Y71500D02*
Y77000D01*
X341500Y76953D02*
X341524Y76976D01*
X335000Y76953D02*
X341500D01*
X331000Y61000D02*
X339500D01*
X341500Y63000D02*
Y71047D01*
X339500Y61000D02*
X341500Y63000D01*
X326500Y71000D02*
X326547Y71047D01*
X335000D01*
X223000Y77453D02*
X223024Y77476D01*
X217000Y77453D02*
X223000D01*
X211500D02*
X217000D01*
X223000Y62000D02*
Y71547D01*
X212500Y51500D02*
X223000Y62000D01*
X203547Y71547D02*
X211500D01*
X203500Y71500D02*
X203547Y71547D01*
X19500Y111500D02*
X38000Y93000D01*
X14982Y110518D02*
X36100Y89400D01*
X17040Y111005D02*
X36846Y91200D01*
X23200Y113033D02*
X39144Y97089D01*
X23200Y113033D02*
Y167746D01*
X25000Y114500D02*
Y167000D01*
Y114500D02*
X40101Y99399D01*
X21400Y112287D02*
X38398Y95289D01*
X21400Y112287D02*
Y175822D01*
X19500Y111500D02*
Y176500D01*
X27500Y115500D02*
Y161036D01*
Y115500D02*
X41126Y101874D01*
X14982Y110518D02*
Y220982D01*
X17040Y203040D02*
X19500Y205500D01*
X17040Y111005D02*
Y203040D01*
X190000Y69000D02*
Y74000D01*
X193000Y66000D02*
X193000D01*
X190000Y69000D02*
X193000Y66000D01*
X193000D02*
X194500Y64500D01*
X180000Y66000D02*
X185500Y71500D01*
X190000Y61000D02*
Y61500D01*
X185500Y56500D02*
X190000Y61000D01*
X179000Y45000D02*
X185500Y51500D01*
X141500Y45000D02*
X179000D01*
X103000Y83500D02*
X141500Y45000D01*
X99976Y77476D02*
X100000Y77500D01*
X95024Y77476D02*
X99976D01*
X11009Y93400D02*
X22509D01*
X11754Y95200D02*
X23254D01*
X16000Y99500D02*
Y99500D01*
X29000Y88591D02*
Y92000D01*
X24000Y97000D02*
X29000Y92000D01*
X26807Y88239D02*
Y91648D01*
X23254Y95200D02*
X26807Y91648D01*
X25000Y87500D02*
Y90909D01*
X22509Y93400D02*
X25000Y90909D01*
X26807Y88239D02*
X29546Y85500D01*
X25000Y87500D02*
X29000Y83500D01*
Y88591D02*
X30091Y87500D01*
X29000Y83500D02*
X103000D01*
X21997Y90376D02*
X22000Y90373D01*
X19000Y80500D02*
Y90500D01*
X13000Y77500D02*
Y90500D01*
X16000Y78500D02*
Y90500D01*
Y78500D02*
X17000Y77500D01*
X71069D01*
X41219Y45000D02*
X63500D01*
X23000Y63219D02*
Y63219D01*
Y63219D02*
X41219Y45000D01*
X32500Y56500D02*
X51500D01*
X17500Y71500D02*
X32500Y56500D01*
X16719Y69500D02*
X23000Y63219D01*
X27597Y169597D02*
Y169965D01*
X25000Y167000D02*
X27597Y169597D01*
X32300Y117000D02*
Y177276D01*
X30500Y116056D02*
Y172459D01*
X14982Y220982D02*
X19500Y225500D01*
X19500Y176500D02*
X22000Y179000D01*
X23200Y167746D02*
X24000Y168546D01*
X21400Y175822D02*
X22203Y176625D01*
X24000Y168546D02*
Y174000D01*
X22203Y176625D02*
X24625D01*
X19500Y230500D02*
Y230911D01*
X95000Y77453D02*
X95024Y77476D01*
X88500Y77453D02*
X95000D01*
X80247Y71547D02*
X88500D01*
X80200Y71500D02*
X80247Y71547D01*
X66700Y48200D02*
Y61500D01*
X63500Y45000D02*
X66700Y48200D01*
X2000Y348000D02*
X19500Y365500D01*
X53350Y58350D02*
Y63850D01*
X51500Y56500D02*
X53350Y58350D01*
Y63850D02*
X61000Y71500D01*
X62200D01*
X30240Y188735D02*
X32040Y186935D01*
X36239Y182239D02*
X36960Y181519D01*
X36239Y182239D02*
X36239D01*
X32040Y189481D02*
X33561Y187960D01*
X30240Y188735D02*
Y189349D01*
X29500Y190089D02*
X30240Y189349D01*
X29500Y190089D02*
Y190500D01*
X35439Y183040D02*
X36239Y182239D01*
X42000Y288000D02*
X65500D01*
X42000Y283000D02*
X65500D01*
X39500Y310500D02*
X39709D01*
X42209Y308000D01*
X29500Y210500D02*
X32040Y207960D01*
X24500Y235500D02*
X27000Y233000D01*
X24625Y176625D02*
X27000Y179000D01*
Y233000D01*
X38521Y198000D02*
X42000D01*
X37000Y199521D02*
X38521Y198000D01*
X19500Y210350D02*
X21700Y208150D01*
Y208000D02*
Y208150D01*
Y188000D02*
Y188150D01*
X19500Y200650D02*
X21700Y202850D01*
X19500Y195350D02*
Y195500D01*
Y190350D02*
X21700Y188150D01*
X19500Y210350D02*
Y210500D01*
Y200500D02*
Y200650D01*
Y190350D02*
Y190500D01*
Y195350D02*
X21700Y193150D01*
X44500Y195500D02*
X46960Y193040D01*
X39500Y185500D02*
X42040Y182960D01*
X32300Y177276D02*
X33012Y177988D01*
X35467D01*
X36960Y179481D02*
Y181519D01*
X35467Y177988D02*
X36960Y179481D01*
X30519Y178040D02*
X31960Y179481D01*
X29586Y178040D02*
X30519D01*
X29000Y177454D02*
X29586Y178040D01*
X29000Y173959D02*
Y177454D01*
Y173959D02*
X30500Y172459D01*
X44500Y210500D02*
X46960Y208040D01*
X24500Y265500D02*
X29500Y260500D01*
X22000Y333000D02*
X24500Y335500D01*
X470853Y61400D02*
X470876Y61376D01*
X22100Y232466D02*
X22317D01*
X24283Y230500D01*
X24500Y225500D02*
Y230500D01*
X19250Y295500D02*
X19500D01*
X37000Y243000D02*
X39500Y245500D01*
X34500Y240500D02*
X37000Y243000D01*
X29500Y235500D02*
Y240500D01*
X34500D01*
X24500Y245500D02*
X29500Y240500D01*
X44500Y325500D02*
X47000Y328000D01*
X24500Y370500D02*
X29500Y365500D01*
X19500Y360500D02*
X24500Y365500D01*
Y370500D02*
X29500Y375500D01*
X19500D02*
X24500Y370500D01*
X29500D02*
X34500Y375500D01*
X24500Y350500D02*
X29500Y355500D01*
X24500Y345500D02*
X29500Y340500D01*
X19250Y355500D02*
X19500D01*
X16750Y358000D02*
X19250Y355500D01*
Y360500D02*
X19500D01*
X19250Y335500D02*
X19500D01*
X16750Y338000D02*
X19250Y335500D01*
Y340500D02*
X19500D01*
X16750Y338000D02*
X19250Y340500D01*
Y320500D02*
X19500D01*
X16750Y318000D02*
X19250Y320500D01*
Y315500D02*
X19500D01*
X16750Y318000D02*
X19250Y315500D01*
X24500Y330500D02*
X29500Y335500D01*
X24500Y325500D02*
X29500Y320500D01*
X24500Y305500D02*
X29500Y300500D01*
X24500Y290500D02*
X29500Y295500D01*
X24500Y285500D02*
X29500Y280500D01*
X24500Y250500D02*
X29500Y255500D01*
X19500Y245400D02*
Y245500D01*
X19250Y240500D02*
X19500D01*
X19250Y235500D02*
X19500D01*
Y215500D02*
Y220500D01*
Y215500D02*
X24500Y210500D01*
X22000Y343000D02*
Y353000D01*
X24500Y355500D01*
X21700Y193000D02*
Y193150D01*
Y202850D02*
Y203000D01*
X22000D02*
X24500Y205500D01*
Y210500D01*
Y185500D02*
Y190500D01*
X22000Y193000D02*
X24500Y190500D01*
X22000Y179000D02*
Y183000D01*
X19500Y185500D02*
X22000Y183000D01*
X19500Y225500D02*
X19500D01*
X19500Y285500D02*
X19500D01*
X3900Y329900D02*
X19500Y345500D01*
X15500Y370500D02*
X19500D01*
X15500Y350500D02*
X19500D01*
X317000Y56000D02*
X322000Y61000D01*
X293500Y56000D02*
X317000D01*
X288000Y66500D02*
X298500D01*
X304000Y61000D01*
X180500Y61500D02*
X181000D01*
X176500Y71500D02*
Y72000D01*
X39500Y240500D02*
X42000Y238000D01*
X29282Y230500D02*
X29500D01*
X37000Y228000D02*
X42000D01*
X34500Y230500D02*
X37000Y228000D01*
X34500Y265500D02*
X34709D01*
X34500Y220296D02*
Y220500D01*
X44500Y245500D02*
X47000Y248000D01*
X280422Y214600D02*
X280500Y214522D01*
X39500Y295500D02*
X42000Y293000D01*
X39500Y300500D02*
X42000Y298000D01*
X39500Y285500D02*
X42000Y288000D01*
X39500Y280500D02*
X42000Y283000D01*
X44500Y270500D02*
X47000Y273000D01*
X44500Y260500D02*
X46960Y262960D01*
X44500Y215500D02*
X47000Y213000D01*
X39500Y255500D02*
X42000Y253000D01*
X39500Y250500D02*
X42000Y248000D01*
X39500Y225500D02*
X42000Y223000D01*
X29500Y305291D02*
Y305500D01*
X34500Y335500D02*
X37000Y338000D01*
Y353000D01*
X142000Y245000D02*
X155500D01*
X156000Y245500D01*
X96024Y252524D02*
X97000Y253500D01*
X96024Y232524D02*
X97000Y233500D01*
X86540Y223040D02*
X87000Y223500D01*
X86540Y213040D02*
X87000Y213500D01*
X29500Y370500D02*
X34500Y365500D01*
X32040Y363040D02*
X34500Y365500D01*
X142000Y234500D02*
Y235000D01*
X364913Y385787D02*
X366500Y387374D01*
Y390500D01*
X349484Y370807D02*
X349492Y370799D01*
X360500Y360854D02*
X361000Y360354D01*
X341000Y370539D02*
X345457D01*
Y370717D01*
X349484Y369947D02*
Y370807D01*
X345457Y370717D02*
X345547Y370807D01*
X347516D01*
X360500Y360854D02*
X360646Y361000D01*
X359826D02*
X360646D01*
X367306Y366980D02*
X372322D01*
X372500Y367158D01*
X363566Y384440D02*
X364913Y385787D01*
X372500Y367158D02*
X372650Y367307D01*
X363566Y378594D02*
Y384440D01*
X189386Y376238D02*
X189800D01*
X190214D01*
X186300Y373153D02*
X189386Y376238D01*
X193300Y370106D02*
Y373153D01*
X190214Y376238D02*
X193300Y373153D01*
X186300Y370106D02*
Y373153D01*
X104800Y370106D02*
X105300Y369605D01*
X104800Y370106D02*
Y372653D01*
X101800Y375653D02*
X104800Y372653D01*
X98300Y369605D02*
Y372153D01*
X230300Y370106D02*
X230658D01*
X231536Y370984D01*
Y373388D01*
X234300Y376153D01*
X237300Y370106D02*
Y373153D01*
X234300Y376153D02*
X237300Y373153D01*
X281300Y370106D02*
Y372653D01*
X277800Y376153D02*
X281300Y372653D01*
X274300Y370106D02*
Y372653D01*
X277800Y376153D01*
D66*
X280753Y335300D02*
D03*
X274847D02*
D03*
X258540D02*
D03*
X252635D02*
D03*
X236328D02*
D03*
X230422D02*
D03*
X214115Y335300D02*
D03*
X208210D02*
D03*
X191903Y335300D02*
D03*
X185997D02*
D03*
X169690D02*
D03*
X163785D02*
D03*
X147478D02*
D03*
X141572D02*
D03*
X125265D02*
D03*
X119360D02*
D03*
X103053D02*
D03*
X97147D02*
D03*
X465147Y55800D02*
D03*
X471053D02*
D03*
X465147Y61400D02*
D03*
X471053D02*
D03*
X465147Y67600D02*
D03*
X471053D02*
D03*
D67*
X341000Y375461D02*
D03*
Y370539D02*
D03*
D71*
X208755Y343247D02*
D03*
Y349153D02*
D03*
X231100Y343200D02*
D03*
Y349106D02*
D03*
X253178Y343247D02*
D03*
Y349153D02*
D03*
X275389Y343247D02*
D03*
Y349153D02*
D03*
X297600Y343247D02*
D03*
Y349153D02*
D03*
X80100Y341747D02*
D03*
Y347653D02*
D03*
X88500Y71547D02*
D03*
Y77453D02*
D03*
X95000Y71547D02*
D03*
Y77453D02*
D03*
X211500Y71547D02*
D03*
Y77453D02*
D03*
X217000Y71547D02*
D03*
Y77453D02*
D03*
X223000Y71547D02*
D03*
Y77453D02*
D03*
X335000Y71047D02*
D03*
Y76953D02*
D03*
X341500Y71047D02*
D03*
Y76953D02*
D03*
X186544Y349153D02*
D03*
Y343247D02*
D03*
X164333Y349153D02*
D03*
Y343247D02*
D03*
X142122Y349153D02*
D03*
Y343247D02*
D03*
X119911Y349153D02*
D03*
Y343247D02*
D03*
X97700Y349153D02*
D03*
Y343247D02*
D03*
X98300Y369605D02*
D03*
Y363700D02*
D03*
X149300Y370605D02*
D03*
Y364700D02*
D03*
X186300Y370106D02*
D03*
Y364200D02*
D03*
X237300Y370106D02*
D03*
Y364200D02*
D03*
X274300Y370106D02*
D03*
Y364200D02*
D03*
X105300Y369605D02*
D03*
Y363700D02*
D03*
X142300Y370605D02*
D03*
Y364700D02*
D03*
X193300Y370106D02*
D03*
Y364200D02*
D03*
X230300Y370106D02*
D03*
Y364200D02*
D03*
X281300Y370106D02*
D03*
Y364200D02*
D03*
D72*
X397900Y147300D02*
D03*
X387700D02*
D03*
X389900Y381200D02*
D03*
Y371000D02*
D03*
X69346Y258700D02*
D03*
X83500D02*
D03*
X101800Y375653D02*
D03*
X68500Y238100D02*
D03*
X351300Y389000D02*
D03*
X326900Y362200D02*
D03*
X164225Y339275D02*
D03*
X299028Y375128D02*
D03*
X230133Y339353D02*
D03*
X334400Y381500D02*
D03*
X373300Y352500D02*
D03*
X360000Y348000D02*
D03*
X368900Y354800D02*
D03*
X239300Y200300D02*
D03*
X389100Y182900D02*
D03*
X158700Y311600D02*
D03*
X180600Y313400D02*
D03*
X399700Y211800D02*
D03*
X385850Y294650D02*
D03*
X392200Y297900D02*
D03*
X403100Y302500D02*
D03*
X242600Y190100D02*
D03*
X153600Y161000D02*
D03*
Y185900D02*
D03*
X368441Y216141D02*
D03*
X288500Y106600D02*
D03*
X329900Y287400D02*
D03*
X329600Y292800D02*
D03*
X339000Y296500D02*
D03*
X69800Y253500D02*
D03*
X59500Y379400D02*
D03*
X330200Y239040D02*
D03*
Y234900D02*
D03*
Y243180D02*
D03*
Y247320D02*
D03*
Y251460D02*
D03*
Y255600D02*
D03*
X299970Y253970D02*
D03*
X112700Y263600D02*
D03*
X121500Y187800D02*
D03*
X327400Y354500D02*
D03*
X361000Y356500D02*
D03*
X335900Y375500D02*
D03*
X80600Y337600D02*
D03*
X257500Y84700D02*
D03*
X368000Y294800D02*
D03*
X394100Y307000D02*
D03*
X361200Y297900D02*
D03*
Y302500D02*
D03*
Y307200D02*
D03*
X153600Y203500D02*
D03*
X52000Y338000D02*
D03*
X46900Y337900D02*
D03*
X41976Y352976D02*
D03*
X68500Y366600D02*
D03*
X32352Y352952D02*
D03*
X22000Y358000D02*
D03*
X62800Y383800D02*
D03*
X65982Y391818D02*
D03*
X259500Y351800D02*
D03*
X239900Y351400D02*
D03*
X217300D02*
D03*
X186370Y339530D02*
D03*
X195500Y353200D02*
D03*
X173100Y352300D02*
D03*
X150000Y351700D02*
D03*
X127100Y352300D02*
D03*
X212700Y329600D02*
D03*
X280900Y350400D02*
D03*
X279200Y330300D02*
D03*
X257100Y330200D02*
D03*
X234400Y330400D02*
D03*
X190300Y330100D02*
D03*
X224800Y313400D02*
D03*
X203700D02*
D03*
X299200Y355250D02*
D03*
Y370287D02*
D03*
Y365275D02*
D03*
Y360262D02*
D03*
X145500Y376100D02*
D03*
X168200Y330400D02*
D03*
X145300Y330300D02*
D03*
X119070Y339322D02*
D03*
X124400Y330200D02*
D03*
X100700Y330300D02*
D03*
X103200Y351200D02*
D03*
X96900Y339400D02*
D03*
X271900Y313400D02*
D03*
X245265D02*
D03*
X136400Y309000D02*
D03*
X122700Y306100D02*
D03*
X116500Y305800D02*
D03*
X86500Y298600D02*
D03*
X208700Y339500D02*
D03*
X111125Y294200D02*
D03*
X116800D02*
D03*
X252600Y339100D02*
D03*
X105450Y294200D02*
D03*
X71100Y356100D02*
D03*
X75152Y360952D02*
D03*
X79900Y364400D02*
D03*
X84311Y367991D02*
D03*
X94100Y294200D02*
D03*
X99775D02*
D03*
X111600Y268600D02*
D03*
X87000Y268000D02*
D03*
X83500Y291500D02*
D03*
X80500Y288500D02*
D03*
X77500Y286000D02*
D03*
X74500Y283500D02*
D03*
X42000Y188000D02*
D03*
X39600Y176700D02*
D03*
X41945Y192555D02*
D03*
X80300Y324900D02*
D03*
X141281Y339322D02*
D03*
X277039Y166650D02*
D03*
X170600Y119000D02*
D03*
X288500Y118800D02*
D03*
X279600Y132700D02*
D03*
X114319Y202575D02*
D03*
X41600Y263000D02*
D03*
X15500Y235200D02*
D03*
X17100Y238200D02*
D03*
X22000Y237900D02*
D03*
X21800Y243100D02*
D03*
X15500Y250500D02*
D03*
X16900Y258000D02*
D03*
X21900Y257900D02*
D03*
X22000Y263100D02*
D03*
X15400Y270500D02*
D03*
X31900Y272700D02*
D03*
X32300Y268000D02*
D03*
X37000Y267700D02*
D03*
X42200Y273000D02*
D03*
X42000Y268100D02*
D03*
X402900Y203000D02*
D03*
X266000Y71900D02*
D03*
X252900Y75100D02*
D03*
X471200Y49900D02*
D03*
X368900Y67400D02*
D03*
X16500Y378500D02*
D03*
X16799Y358116D02*
D03*
X37100Y333100D02*
D03*
X67600Y303000D02*
D03*
X37100Y263100D02*
D03*
X52000Y198200D02*
D03*
X360000Y156500D02*
D03*
X46800Y253100D02*
D03*
X68800Y245700D02*
D03*
X51800Y218000D02*
D03*
Y233150D02*
D03*
X67327Y242902D02*
D03*
X47000Y188000D02*
D03*
X42000Y278000D02*
D03*
X37000Y303000D02*
D03*
X37040Y322960D02*
D03*
X42000Y373000D02*
D03*
X400200Y197100D02*
D03*
X175300Y123100D02*
D03*
X103100Y161400D02*
D03*
X103000Y167600D02*
D03*
X170700Y154700D02*
D03*
X175300Y154800D02*
D03*
X175400Y161400D02*
D03*
X170600Y161300D02*
D03*
X344100Y318200D02*
D03*
X335168Y327407D02*
D03*
X335100Y323100D02*
D03*
Y318500D02*
D03*
Y314300D02*
D03*
X344000Y313900D02*
D03*
Y309300D02*
D03*
Y305500D02*
D03*
X86800Y293300D02*
D03*
X357500Y390550D02*
D03*
X361800Y393500D02*
D03*
X366500Y390500D02*
D03*
X416262Y82524D02*
D03*
X421962Y82324D02*
D03*
X365400Y82800D02*
D03*
X393400Y63800D02*
D03*
X388762Y79724D02*
D03*
X74107Y368093D02*
D03*
X62500Y389300D02*
D03*
X17000Y298000D02*
D03*
X25300Y268236D02*
D03*
X22000Y338000D02*
D03*
X32200Y282900D02*
D03*
X32000Y288000D02*
D03*
X347000Y77000D02*
D03*
X170600Y168800D02*
D03*
X170700Y175900D02*
D03*
X175400Y168800D02*
D03*
X175300Y176200D02*
D03*
X158000Y203500D02*
D03*
X119300Y231600D02*
D03*
X118800Y241000D02*
D03*
X145787Y256250D02*
D03*
X104500Y248871D02*
D03*
X101163Y239663D02*
D03*
X79282Y253482D02*
D03*
X41700Y258000D02*
D03*
X32300Y258054D02*
D03*
X79000Y215600D02*
D03*
X37100Y247900D02*
D03*
X15500Y330500D02*
D03*
X16000Y310500D02*
D03*
X17000Y278000D02*
D03*
X16500Y318000D02*
D03*
X15500Y290500D02*
D03*
X68500Y231450D02*
D03*
X74561D02*
D03*
X129800Y260400D02*
D03*
X139287Y272547D02*
D03*
X67600Y327600D02*
D03*
X94800Y267600D02*
D03*
X275400Y339400D02*
D03*
X284000Y130000D02*
D03*
X267000Y169000D02*
D03*
X277500Y174500D02*
D03*
X273965Y171000D02*
D03*
X148000Y213500D02*
D03*
X102000Y191000D02*
D03*
X42015Y208000D02*
D03*
X103500Y221000D02*
D03*
X37000Y218018D02*
D03*
X42000Y218000D02*
D03*
X37000Y233000D02*
D03*
X70000Y197000D02*
D03*
X42000Y203000D02*
D03*
X47000Y198000D02*
D03*
X42000Y213000D02*
D03*
X211229Y92607D02*
D03*
X233500Y98000D02*
D03*
X251000Y95500D02*
D03*
X258500Y89000D02*
D03*
X244000Y88500D02*
D03*
X265000D02*
D03*
X151764Y256274D02*
D03*
X354047Y345744D02*
D03*
X37000Y308000D02*
D03*
Y318000D02*
D03*
X68500Y273000D02*
D03*
X81000Y238500D02*
D03*
Y245000D02*
D03*
X302250Y213500D02*
D03*
Y209550D02*
D03*
X37000Y278000D02*
D03*
Y283000D02*
D03*
Y293000D02*
D03*
Y298000D02*
D03*
X293498Y228502D02*
D03*
X349437Y345634D02*
D03*
X349500Y360000D02*
D03*
X354000Y363000D02*
D03*
X325500Y375000D02*
D03*
X41982Y232982D02*
D03*
X37000Y238000D02*
D03*
X74500Y238500D02*
D03*
X77500Y241000D02*
D03*
X71500Y281000D02*
D03*
X37000Y223000D02*
D03*
X228500Y77273D02*
D03*
X100000Y77500D02*
D03*
X16000Y99500D02*
D03*
X22000D02*
D03*
X21997Y90376D02*
D03*
X19000Y90500D02*
D03*
X13000D02*
D03*
X16000D02*
D03*
X19000Y80500D02*
D03*
X13000Y77500D02*
D03*
X124500Y287500D02*
D03*
X27597Y169965D02*
D03*
X27500Y161036D02*
D03*
X24000Y174000D02*
D03*
X170000Y285000D02*
D03*
X42000Y198000D02*
D03*
X21700Y193000D02*
D03*
Y188000D02*
D03*
Y208000D02*
D03*
Y203000D02*
D03*
X22100Y232466D02*
D03*
X16750Y338000D02*
D03*
X37000Y243000D02*
D03*
X47000Y328000D02*
D03*
X22000Y343000D02*
D03*
X15500Y370500D02*
D03*
Y350500D02*
D03*
X42000Y228000D02*
D03*
X237500Y184500D02*
D03*
X250800Y204500D02*
D03*
X382000Y271500D02*
D03*
Y243500D02*
D03*
X42000Y253000D02*
D03*
Y248000D02*
D03*
Y223000D02*
D03*
X244800Y204500D02*
D03*
X343500Y348000D02*
D03*
X443500Y221000D02*
D03*
X170000Y291000D02*
D03*
X341803Y389461D02*
D03*
X140787Y281047D02*
D03*
X134787Y272547D02*
D03*
X189800Y376238D02*
D03*
X234300Y376153D02*
D03*
X277800D02*
D03*
D73*
X42000Y170949D02*
D03*
X54008Y385051D02*
D03*
D74*
X321957Y222277D02*
D03*
X185737D02*
D03*
D75*
X227272Y214600D02*
D03*
X233178D02*
D03*
X239084D02*
D03*
X244989D02*
D03*
X250894D02*
D03*
X256800D02*
D03*
X262705D02*
D03*
X268611D02*
D03*
X274517D02*
D03*
D76*
X280422D02*
D03*
D77*
X383200Y61100D02*
D03*
X481600D02*
D03*
X260300Y61000D02*
D03*
X358700D02*
D03*
X14000Y61500D02*
D03*
X112400D02*
D03*
X137300D02*
D03*
X235700D02*
D03*
D78*
X413400Y51100D02*
D03*
X422400D02*
D03*
X431400D02*
D03*
X440400D02*
D03*
X449400D02*
D03*
X417900Y61100D02*
D03*
X426900D02*
D03*
X435900D02*
D03*
X444900D02*
D03*
X453900D02*
D03*
X413400Y71100D02*
D03*
X422400D02*
D03*
X431400D02*
D03*
X440400D02*
D03*
X290500Y51000D02*
D03*
X299500D02*
D03*
X308500D02*
D03*
X317500D02*
D03*
X326500D02*
D03*
X295000Y61000D02*
D03*
X304000D02*
D03*
X313000D02*
D03*
X322000D02*
D03*
X331000D02*
D03*
X290500Y71000D02*
D03*
X299500D02*
D03*
X308500D02*
D03*
X317500D02*
D03*
X44200Y51500D02*
D03*
X53200D02*
D03*
X62200D02*
D03*
X71200D02*
D03*
X80200D02*
D03*
X48700Y61500D02*
D03*
X57700D02*
D03*
X66700D02*
D03*
X75700D02*
D03*
X84700D02*
D03*
X44200Y71500D02*
D03*
X53200D02*
D03*
X62200D02*
D03*
X71200D02*
D03*
X167500Y51500D02*
D03*
X176500D02*
D03*
X185500D02*
D03*
X194500D02*
D03*
X203500D02*
D03*
X172000Y61500D02*
D03*
X181000D02*
D03*
X190000D02*
D03*
X199000D02*
D03*
X208000D02*
D03*
X167500Y71500D02*
D03*
X176500D02*
D03*
X185500D02*
D03*
X194500D02*
D03*
D79*
X449400Y71100D02*
D03*
X326500Y71000D02*
D03*
X80200Y71500D02*
D03*
X203500D02*
D03*
D80*
X90800Y374153D02*
D03*
Y384153D02*
D03*
Y364153D02*
D03*
X112800Y374153D02*
D03*
Y384153D02*
D03*
Y364153D02*
D03*
X134800Y374153D02*
D03*
Y384153D02*
D03*
Y364153D02*
D03*
X156800Y374153D02*
D03*
Y384153D02*
D03*
Y364153D02*
D03*
X178800Y374153D02*
D03*
Y384153D02*
D03*
Y364153D02*
D03*
X200800Y374153D02*
D03*
Y384153D02*
D03*
Y364153D02*
D03*
X222800Y374153D02*
D03*
Y384153D02*
D03*
Y364153D02*
D03*
X244800Y374153D02*
D03*
Y384153D02*
D03*
Y364153D02*
D03*
X266800Y374153D02*
D03*
Y384153D02*
D03*
Y364153D02*
D03*
X288800Y374153D02*
D03*
Y384153D02*
D03*
Y364153D02*
D03*
D81*
X362600Y226500D02*
D03*
X350000D02*
D03*
Y288700D02*
D03*
X362600D02*
D03*
D82*
X356300Y239100D02*
D03*
Y276100D02*
D03*
Y257600D02*
D03*
D83*
X463000Y129000D02*
D03*
Y139000D02*
D03*
Y149000D02*
D03*
Y159000D02*
D03*
X473000Y129000D02*
D03*
Y139000D02*
D03*
Y149000D02*
D03*
Y159000D02*
D03*
X463000Y209000D02*
D03*
X473000D02*
D03*
X463000Y229000D02*
D03*
X473000D02*
D03*
X463000Y249000D02*
D03*
X473000D02*
D03*
X463000Y269000D02*
D03*
X473000D02*
D03*
X463000Y279000D02*
D03*
X473000Y259000D02*
D03*
X463000D02*
D03*
X473000Y239000D02*
D03*
X463000D02*
D03*
X473000Y219000D02*
D03*
X463000D02*
D03*
X473000Y199000D02*
D03*
X463000D02*
D03*
X473000Y189000D02*
D03*
X463000D02*
D03*
X473000Y179000D02*
D03*
X463000D02*
D03*
X473000Y169000D02*
D03*
X463000D02*
D03*
D84*
X473000Y279000D02*
D03*
D85*
X87700Y139100D02*
D03*
X97000Y213500D02*
D03*
X142000Y225000D02*
D03*
X156000Y244500D02*
D03*
D86*
X87700Y149100D02*
D03*
X97000Y223500D02*
D03*
Y233500D02*
D03*
Y243500D02*
D03*
Y253500D02*
D03*
X87000Y213500D02*
D03*
Y223500D02*
D03*
Y233500D02*
D03*
Y243500D02*
D03*
Y253500D02*
D03*
X139000Y201500D02*
D03*
X237500Y176500D02*
D03*
X247500D02*
D03*
X257500D02*
D03*
X142000Y235000D02*
D03*
Y245000D02*
D03*
X156000Y234500D02*
D03*
X202000Y137100D02*
D03*
Y151000D02*
D03*
X305000Y169500D02*
D03*
X315000D02*
D03*
X325000D02*
D03*
X335000D02*
D03*
X345000D02*
D03*
D87*
X476000Y369000D02*
D03*
Y104700D02*
D03*
D88*
X129000Y201500D02*
D03*
X267500Y176500D02*
D03*
X192000Y137100D02*
D03*
Y151000D02*
D03*
X355000Y169500D02*
D03*
D109*
X64500Y375500D02*
D03*
X59500D02*
D03*
X54500D02*
D03*
X49500D02*
D03*
X44500D02*
D03*
X39500D02*
D03*
X34500D02*
D03*
X29500D02*
D03*
X24500D02*
D03*
X19500D02*
D03*
X64500Y370500D02*
D03*
X59500D02*
D03*
X54500D02*
D03*
X49500D02*
D03*
X44500D02*
D03*
X39500D02*
D03*
X34500D02*
D03*
X29500D02*
D03*
X24500D02*
D03*
X19500D02*
D03*
X64500Y365500D02*
D03*
X59500D02*
D03*
X54500D02*
D03*
X49500D02*
D03*
X44500D02*
D03*
X39500D02*
D03*
X34500D02*
D03*
X29500D02*
D03*
X24500D02*
D03*
X19500D02*
D03*
X64500Y360500D02*
D03*
X59500D02*
D03*
X54500D02*
D03*
X49500D02*
D03*
X44500D02*
D03*
X39500D02*
D03*
X34500D02*
D03*
X29500D02*
D03*
X24500D02*
D03*
X19500D02*
D03*
X64500Y355500D02*
D03*
X59500D02*
D03*
X54500D02*
D03*
X49500D02*
D03*
X44500D02*
D03*
X39500D02*
D03*
X34500D02*
D03*
X29500D02*
D03*
X24500D02*
D03*
X19500D02*
D03*
X64500Y350500D02*
D03*
X59500D02*
D03*
X54500D02*
D03*
X49500D02*
D03*
X44500D02*
D03*
X39500D02*
D03*
X34500D02*
D03*
X29500D02*
D03*
X24500D02*
D03*
X19500D02*
D03*
X64500Y345500D02*
D03*
X59500D02*
D03*
X54500D02*
D03*
X49500D02*
D03*
X44500D02*
D03*
X39500D02*
D03*
X34500D02*
D03*
X29500D02*
D03*
X24500D02*
D03*
X19500D02*
D03*
X64500Y340500D02*
D03*
X59500D02*
D03*
X54500D02*
D03*
X49500D02*
D03*
X44500D02*
D03*
X39500D02*
D03*
X34500D02*
D03*
X29500D02*
D03*
X24500D02*
D03*
X19500D02*
D03*
X64500Y335500D02*
D03*
X59500D02*
D03*
X54500D02*
D03*
X49500D02*
D03*
X44500D02*
D03*
X39500D02*
D03*
X34500D02*
D03*
X29500D02*
D03*
X24500D02*
D03*
X19500D02*
D03*
X64500Y330500D02*
D03*
X59500D02*
D03*
X54500D02*
D03*
X49500D02*
D03*
X44500D02*
D03*
X39500D02*
D03*
X34500D02*
D03*
X29500D02*
D03*
X24500D02*
D03*
X19500D02*
D03*
X64500Y325500D02*
D03*
X59500D02*
D03*
X54500D02*
D03*
X49500D02*
D03*
X44500D02*
D03*
X39500D02*
D03*
X34500D02*
D03*
X29500D02*
D03*
X24500D02*
D03*
X19500D02*
D03*
X64500Y320500D02*
D03*
X59500D02*
D03*
X54500D02*
D03*
X49500D02*
D03*
X44500D02*
D03*
X39500D02*
D03*
X34500D02*
D03*
X29500D02*
D03*
X24500D02*
D03*
X19500D02*
D03*
X64500Y315500D02*
D03*
X59500D02*
D03*
X54500D02*
D03*
X49500D02*
D03*
X44500D02*
D03*
X39500D02*
D03*
X34500D02*
D03*
X29500D02*
D03*
X24500D02*
D03*
X19500D02*
D03*
X64500Y310500D02*
D03*
X59500D02*
D03*
X54500D02*
D03*
X49500D02*
D03*
X44500D02*
D03*
X39500D02*
D03*
X34500D02*
D03*
X29500D02*
D03*
X24500D02*
D03*
X19500D02*
D03*
X64500Y305500D02*
D03*
X59500D02*
D03*
X54500D02*
D03*
X49500D02*
D03*
X44500D02*
D03*
X39500D02*
D03*
X34500D02*
D03*
X29500D02*
D03*
X24500D02*
D03*
X19500D02*
D03*
X64500Y300500D02*
D03*
X59500D02*
D03*
X54500D02*
D03*
X49500D02*
D03*
X44500D02*
D03*
X39500D02*
D03*
X34500D02*
D03*
X29500D02*
D03*
X24500D02*
D03*
X19500D02*
D03*
X64500Y295500D02*
D03*
X59500D02*
D03*
X54500D02*
D03*
X49500D02*
D03*
X44500D02*
D03*
X39500D02*
D03*
X34500D02*
D03*
X29500D02*
D03*
X24500D02*
D03*
X19500D02*
D03*
X64500Y290500D02*
D03*
X59500D02*
D03*
X54500D02*
D03*
X49500D02*
D03*
X44500D02*
D03*
X39500D02*
D03*
X34500D02*
D03*
X29500D02*
D03*
X24500D02*
D03*
X19500D02*
D03*
X64500Y285500D02*
D03*
X59500D02*
D03*
X54500D02*
D03*
X49500D02*
D03*
X44500D02*
D03*
X39500D02*
D03*
X34500D02*
D03*
X29500D02*
D03*
X24500D02*
D03*
X19500D02*
D03*
X64500Y280500D02*
D03*
X59500D02*
D03*
X54500D02*
D03*
X49500D02*
D03*
X44500D02*
D03*
X39500D02*
D03*
X34500D02*
D03*
X29500D02*
D03*
X24500D02*
D03*
X19500D02*
D03*
X64500Y275500D02*
D03*
X59500D02*
D03*
X54500D02*
D03*
X49500D02*
D03*
X44500D02*
D03*
X39500D02*
D03*
X34500D02*
D03*
X29500D02*
D03*
X24500D02*
D03*
X19500D02*
D03*
X64500Y270500D02*
D03*
X59500D02*
D03*
X54500D02*
D03*
X49500D02*
D03*
X44500D02*
D03*
X39500D02*
D03*
X34500D02*
D03*
X29500D02*
D03*
X24500D02*
D03*
X19500D02*
D03*
X64500Y265500D02*
D03*
X59500D02*
D03*
X54500D02*
D03*
X49500D02*
D03*
X44500D02*
D03*
X39500D02*
D03*
X34500D02*
D03*
X29500D02*
D03*
X24500D02*
D03*
X19500D02*
D03*
X64500Y260500D02*
D03*
X59500D02*
D03*
X54500D02*
D03*
X49500D02*
D03*
X44500D02*
D03*
X39500D02*
D03*
X34500D02*
D03*
X29500D02*
D03*
X24500D02*
D03*
X19500D02*
D03*
X64500Y255500D02*
D03*
X59500D02*
D03*
X54500D02*
D03*
X49500D02*
D03*
X44500D02*
D03*
X39500D02*
D03*
X34500D02*
D03*
X29500D02*
D03*
X24500D02*
D03*
X19500D02*
D03*
X64500Y250500D02*
D03*
X59500D02*
D03*
X54500D02*
D03*
X49500D02*
D03*
X44500D02*
D03*
X39500D02*
D03*
X34500D02*
D03*
X29500D02*
D03*
X24500D02*
D03*
X19500D02*
D03*
X64500Y245500D02*
D03*
X59500D02*
D03*
X54500D02*
D03*
X49500D02*
D03*
X44500D02*
D03*
X39500D02*
D03*
X34500D02*
D03*
X29500D02*
D03*
X24500D02*
D03*
X19500D02*
D03*
X64500Y240500D02*
D03*
X59500D02*
D03*
X54500D02*
D03*
X49500D02*
D03*
X44500D02*
D03*
X39500D02*
D03*
X34500D02*
D03*
X29500D02*
D03*
X24500D02*
D03*
X19500D02*
D03*
X64500Y235500D02*
D03*
X59500D02*
D03*
X54500D02*
D03*
X49500D02*
D03*
X44500D02*
D03*
X39500D02*
D03*
X34500D02*
D03*
X29500D02*
D03*
X24500D02*
D03*
X19500D02*
D03*
X64500Y230500D02*
D03*
X59500D02*
D03*
X54500D02*
D03*
X49500D02*
D03*
X44500D02*
D03*
X39500D02*
D03*
X34500D02*
D03*
X29500D02*
D03*
X24500D02*
D03*
X19500D02*
D03*
X64500Y225500D02*
D03*
X59500D02*
D03*
X54500D02*
D03*
X49500D02*
D03*
X44500D02*
D03*
X39500D02*
D03*
X34500D02*
D03*
X29500D02*
D03*
X24500D02*
D03*
X19500D02*
D03*
X64500Y220500D02*
D03*
X59500D02*
D03*
X54500D02*
D03*
X49500D02*
D03*
X44500D02*
D03*
X39500D02*
D03*
X34500D02*
D03*
X29500D02*
D03*
X24500D02*
D03*
X19500D02*
D03*
X64500Y215500D02*
D03*
X59500D02*
D03*
X54500D02*
D03*
X49500D02*
D03*
X44500D02*
D03*
X39500D02*
D03*
X34500D02*
D03*
X29500D02*
D03*
X24500D02*
D03*
X19500D02*
D03*
X64500Y210500D02*
D03*
X59500D02*
D03*
X54500D02*
D03*
X49500D02*
D03*
X44500D02*
D03*
X39500D02*
D03*
X34500D02*
D03*
X29500D02*
D03*
X24500D02*
D03*
X19500D02*
D03*
X64500Y205500D02*
D03*
X59500D02*
D03*
X54500D02*
D03*
X49500D02*
D03*
X44500D02*
D03*
X39500D02*
D03*
X34500D02*
D03*
X29500D02*
D03*
X24500D02*
D03*
X19500D02*
D03*
X64500Y200500D02*
D03*
X59500D02*
D03*
X54500D02*
D03*
X49500D02*
D03*
X44500D02*
D03*
X39500D02*
D03*
X34500D02*
D03*
X29500D02*
D03*
X24500D02*
D03*
X19500D02*
D03*
X64500Y195500D02*
D03*
X59500D02*
D03*
X54500D02*
D03*
X49500D02*
D03*
X44500D02*
D03*
X39500D02*
D03*
X34500D02*
D03*
X29500D02*
D03*
X24500D02*
D03*
X19500D02*
D03*
X64500Y190500D02*
D03*
X59500D02*
D03*
X54500D02*
D03*
X49500D02*
D03*
X44500D02*
D03*
X39500D02*
D03*
X34500D02*
D03*
X29500D02*
D03*
X24500D02*
D03*
X19500D02*
D03*
X64500Y185500D02*
D03*
X59500D02*
D03*
X54500D02*
D03*
X49500D02*
D03*
X44500D02*
D03*
X39500D02*
D03*
X34500D02*
D03*
X29500D02*
D03*
X24500D02*
D03*
X19500D02*
D03*
X64500Y180500D02*
D03*
X59500D02*
D03*
X54500D02*
D03*
X49500D02*
D03*
X44500D02*
D03*
X39500D02*
D03*
X34500D02*
D03*
X29500D02*
D03*
X24500D02*
D03*
X19500D02*
D03*
D110*
X88900Y347331D02*
D03*
X85160Y338669D02*
D03*
X92640D02*
D03*
X111111Y347331D02*
D03*
X107371Y338669D02*
D03*
X114851D02*
D03*
X133322Y347331D02*
D03*
X129582Y338669D02*
D03*
X137062D02*
D03*
X155533Y347331D02*
D03*
X151793Y338669D02*
D03*
X159274D02*
D03*
X177744Y347331D02*
D03*
X174004Y338669D02*
D03*
X181485D02*
D03*
X199955Y347331D02*
D03*
X196215Y338669D02*
D03*
X203696D02*
D03*
X222167Y347331D02*
D03*
X218426Y338669D02*
D03*
X225907D02*
D03*
X244378Y347331D02*
D03*
X240637Y338669D02*
D03*
X248118D02*
D03*
X266589Y347331D02*
D03*
X262849Y338669D02*
D03*
X270329D02*
D03*
X288800Y347331D02*
D03*
X285060Y338669D02*
D03*
X292540D02*
D03*
D111*
X348000Y398062D02*
D03*
Y393338D02*
D03*
X353000D02*
D03*
Y398062D02*
D03*
D112*
X351453Y370807D02*
D03*
X349484D02*
D03*
X347516D02*
D03*
X345547D02*
D03*
X351453Y384193D02*
D03*
X349484D02*
D03*
X347516D02*
D03*
X345547D02*
D03*
D113*
X372500Y367158D02*
D03*
Y361842D02*
D03*
D114*
X359826Y366980D02*
D03*
X367306D02*
D03*
Y378594D02*
D03*
X363566D02*
D03*
X359826D02*
D03*
D115*
X366354Y361000D02*
D03*
X360646D02*
D03*
D116*
X364913Y385787D02*
D03*
X358220D02*
D03*
M02*
