G04*
G04 #@! TF.GenerationSoftware,Altium Limited,Altium Designer,20.0.10 (225)*
G04*
G04 Layer_Color=32896*
%FSLAX25Y25*%
%MOIN*%
G70*
G01*
G75*
%ADD10C,0.00787*%
%ADD13C,0.00984*%
%ADD14C,0.00500*%
%ADD127C,0.01181*%
D10*
X44992Y164693D02*
Y168197D01*
X39008Y164693D02*
X44992D01*
X39008D02*
Y168197D01*
X13102Y387803D02*
X49500D01*
X58713D02*
X70898D01*
Y168197D02*
Y387803D01*
X44992Y168197D02*
X70898D01*
X13102D02*
X39008D01*
X13102D02*
Y387803D01*
X277013Y336678D02*
X278587D01*
X277013Y333922D02*
X278587D01*
X254800Y336678D02*
X256375D01*
X254800Y333922D02*
X256375D01*
X232588Y336678D02*
X234162D01*
X232588Y333922D02*
X234162D01*
X210375Y336678D02*
X211950D01*
X210375Y333922D02*
X211950D01*
X188163Y336678D02*
X189737D01*
X188163Y333922D02*
X189737D01*
X165950Y336678D02*
X167525D01*
X165950Y333922D02*
X167525D01*
X143738Y336678D02*
X145312D01*
X143738Y333922D02*
X145312D01*
X121525Y336678D02*
X123100D01*
X121525Y333922D02*
X123100D01*
X99313Y336678D02*
X100887D01*
X99313Y333922D02*
X100887D01*
X210134Y345413D02*
Y346987D01*
X207378Y345413D02*
Y346987D01*
X232478Y345365D02*
Y346940D01*
X229722Y345365D02*
Y346940D01*
X254556Y345413D02*
Y346987D01*
X251800Y345413D02*
Y346987D01*
X276767Y345413D02*
Y346987D01*
X274011Y345413D02*
Y346987D01*
X298978Y345413D02*
Y346987D01*
X296222Y345413D02*
Y346987D01*
X81478Y343913D02*
Y345487D01*
X78722Y343913D02*
Y345487D01*
X89878Y73713D02*
Y75287D01*
X87122Y73713D02*
Y75287D01*
X96378Y73713D02*
Y75287D01*
X93622Y73713D02*
Y75287D01*
X212878Y73713D02*
Y75287D01*
X210122Y73713D02*
Y75287D01*
X218378Y73713D02*
Y75287D01*
X215622Y73713D02*
Y75287D01*
X224378Y73713D02*
Y75287D01*
X221622Y73713D02*
Y75287D01*
X336378Y73213D02*
Y74787D01*
X333622Y73213D02*
Y74787D01*
X342878Y73213D02*
Y74787D01*
X340122Y73213D02*
Y74787D01*
X467313Y54422D02*
X468887D01*
X467313Y57178D02*
X468887D01*
X467313Y60022D02*
X468887D01*
X467313Y62778D02*
X468887D01*
X467313Y66222D02*
X468887D01*
X467313Y68978D02*
X468887D01*
X185167Y345413D02*
Y346987D01*
X187922Y345413D02*
Y346987D01*
X162955Y345413D02*
Y346987D01*
X165711Y345413D02*
Y346987D01*
X140744Y345413D02*
Y346987D01*
X143500Y345413D02*
Y346987D01*
X118533Y345413D02*
Y346987D01*
X121289Y345413D02*
Y346987D01*
X96322Y345413D02*
Y346987D01*
X99078Y345413D02*
Y346987D01*
X352634Y374350D02*
Y380650D01*
X344366Y374350D02*
Y380650D01*
Y374350D02*
X352634D01*
X344366Y380650D02*
X352634D01*
X357464Y370818D02*
X369669D01*
X357464Y374755D02*
X369669D01*
Y370818D02*
Y374755D01*
X357464Y370818D02*
Y374755D01*
X96922Y365865D02*
Y367440D01*
X99678Y365865D02*
Y367440D01*
X147922Y366865D02*
Y368440D01*
X150678Y366865D02*
Y368440D01*
X184922Y366365D02*
Y367940D01*
X187678Y366365D02*
Y367940D01*
X235922Y366365D02*
Y367940D01*
X238678Y366365D02*
Y367940D01*
X272922Y366365D02*
Y367940D01*
X275678Y366365D02*
Y367940D01*
X103922Y365865D02*
Y367440D01*
X106678Y365865D02*
Y367440D01*
X140922Y366865D02*
Y368440D01*
X143678Y366865D02*
Y368440D01*
X191922Y366365D02*
Y367940D01*
X194678Y366365D02*
Y367940D01*
X228922Y366365D02*
Y367940D01*
X231678Y366365D02*
Y367940D01*
X279922Y366365D02*
Y367940D01*
X282678Y366365D02*
Y367940D01*
D13*
X343185Y384193D02*
G03*
X343185Y384193I-492J0D01*
G01*
X356873Y378594D02*
G03*
X356873Y378594I-492J0D01*
G01*
D14*
X291599Y334600D02*
Y332934D01*
X291266Y332600D01*
X290599D01*
X290266Y332934D01*
Y334600D01*
X289600Y332600D02*
X288933D01*
X289267D01*
Y334600D01*
X289600Y334266D01*
X286601Y334600D02*
X287267Y334266D01*
X287934Y333600D01*
Y332934D01*
X287600Y332600D01*
X286934D01*
X286601Y332934D01*
Y333267D01*
X286934Y333600D01*
X287934D01*
X269399Y334600D02*
Y332934D01*
X269066Y332600D01*
X268400D01*
X268066Y332934D01*
Y334600D01*
X267400Y332600D02*
X266733D01*
X267067D01*
Y334600D01*
X267400Y334266D01*
X264401Y334600D02*
X265734D01*
Y333600D01*
X265067Y333933D01*
X264734D01*
X264401Y333600D01*
Y332934D01*
X264734Y332600D01*
X265401D01*
X265734Y332934D01*
X246899Y334600D02*
Y332934D01*
X246566Y332600D01*
X245900D01*
X245566Y332934D01*
Y334600D01*
X244900Y332600D02*
X244233D01*
X244567D01*
Y334600D01*
X244900Y334266D01*
X242234Y332600D02*
Y334600D01*
X243234Y333600D01*
X241901D01*
X225399Y334600D02*
Y332934D01*
X225066Y332600D01*
X224399D01*
X224066Y332934D01*
Y334600D01*
X223400Y332600D02*
X222733D01*
X223067D01*
Y334600D01*
X223400Y334266D01*
X221734D02*
X221400Y334600D01*
X220734D01*
X220401Y334266D01*
Y333933D01*
X220734Y333600D01*
X221067D01*
X220734D01*
X220401Y333267D01*
Y332934D01*
X220734Y332600D01*
X221400D01*
X221734Y332934D01*
X203199Y334600D02*
Y332934D01*
X202866Y332600D01*
X202200D01*
X201866Y332934D01*
Y334600D01*
X201200Y332600D02*
X200533D01*
X200867D01*
Y334600D01*
X201200Y334266D01*
X198201Y332600D02*
X199534D01*
X198201Y333933D01*
Y334266D01*
X198534Y334600D01*
X199200D01*
X199534Y334266D01*
X180166Y334600D02*
Y332934D01*
X179833Y332600D01*
X179166D01*
X178833Y332934D01*
Y334600D01*
X178167Y332600D02*
X177500D01*
X177833D01*
Y334600D01*
X178167Y334266D01*
X176500Y332600D02*
X175834D01*
X176167D01*
Y334600D01*
X176500Y334266D01*
X157999Y334600D02*
Y332934D01*
X157666Y332600D01*
X157000D01*
X156666Y332934D01*
Y334600D01*
X156000Y332600D02*
X155333D01*
X155667D01*
Y334600D01*
X156000Y334266D01*
X154334D02*
X154000Y334600D01*
X153334D01*
X153001Y334266D01*
Y332934D01*
X153334Y332600D01*
X154000D01*
X154334Y332934D01*
Y334266D01*
X135366Y334600D02*
Y332934D01*
X135033Y332600D01*
X134366D01*
X134033Y332934D01*
Y334600D01*
X133367Y332934D02*
X133034Y332600D01*
X132367D01*
X132034Y332934D01*
Y334266D01*
X132367Y334600D01*
X133034D01*
X133367Y334266D01*
Y333933D01*
X133034Y333600D01*
X132034D01*
X112966Y334600D02*
Y332934D01*
X112633Y332600D01*
X111966D01*
X111633Y332934D01*
Y334600D01*
X110967Y334266D02*
X110634Y334600D01*
X109967D01*
X109634Y334266D01*
Y333933D01*
X109967Y333600D01*
X109634Y333267D01*
Y332934D01*
X109967Y332600D01*
X110634D01*
X110967Y332934D01*
Y333267D01*
X110634Y333600D01*
X110967Y333933D01*
Y334266D01*
X110634Y333600D02*
X109967D01*
X90566Y334600D02*
Y332934D01*
X90233Y332600D01*
X89566D01*
X89233Y332934D01*
Y334600D01*
X88567D02*
X87234D01*
Y334266D01*
X88567Y332934D01*
Y332600D01*
X300166Y351400D02*
Y353400D01*
X299166D01*
X298833Y353066D01*
Y352400D01*
X299166Y352067D01*
X300166D01*
X299499D02*
X298833Y351400D01*
X296834Y353400D02*
X298166D01*
Y352400D01*
X297500Y352733D01*
X297167D01*
X296834Y352400D01*
Y351734D01*
X297167Y351400D01*
X297833D01*
X298166Y351734D01*
X296167Y353066D02*
X295834Y353400D01*
X295167D01*
X294834Y353066D01*
Y352733D01*
X295167Y352400D01*
X294834Y352067D01*
Y351734D01*
X295167Y351400D01*
X295834D01*
X296167Y351734D01*
Y352067D01*
X295834Y352400D01*
X296167Y352733D01*
Y353066D01*
X295834Y352400D02*
X295167D01*
X277666Y351400D02*
Y353400D01*
X276666D01*
X276333Y353066D01*
Y352400D01*
X276666Y352067D01*
X277666D01*
X276999D02*
X276333Y351400D01*
X274334Y353400D02*
X275666D01*
Y352400D01*
X275000Y352733D01*
X274667D01*
X274334Y352400D01*
Y351734D01*
X274667Y351400D01*
X275333D01*
X275666Y351734D01*
X273667Y353400D02*
X272334D01*
Y353066D01*
X273667Y351734D01*
Y351400D01*
X255866D02*
Y353400D01*
X254866D01*
X254533Y353066D01*
Y352400D01*
X254866Y352067D01*
X255866D01*
X255199D02*
X254533Y351400D01*
X252534Y353400D02*
X253866D01*
Y352400D01*
X253200Y352733D01*
X252867D01*
X252534Y352400D01*
Y351734D01*
X252867Y351400D01*
X253533D01*
X253866Y351734D01*
X250534Y353400D02*
X251201Y353066D01*
X251867Y352400D01*
Y351734D01*
X251534Y351400D01*
X250867D01*
X250534Y351734D01*
Y352067D01*
X250867Y352400D01*
X251867D01*
X233799Y351353D02*
Y353352D01*
X232800D01*
X232466Y353019D01*
Y352353D01*
X232800Y352020D01*
X233799D01*
X233133D02*
X232466Y351353D01*
X230467Y353352D02*
X231800D01*
Y352353D01*
X231133Y352686D01*
X230800D01*
X230467Y352353D01*
Y351686D01*
X230800Y351353D01*
X231467D01*
X231800Y351686D01*
X228467Y353352D02*
X229801D01*
Y352353D01*
X229134Y352686D01*
X228801D01*
X228467Y352353D01*
Y351686D01*
X228801Y351353D01*
X229467D01*
X229801Y351686D01*
X211166Y351400D02*
Y353400D01*
X210166D01*
X209833Y353066D01*
Y352400D01*
X210166Y352067D01*
X211166D01*
X210499D02*
X209833Y351400D01*
X207834Y353400D02*
X209166D01*
Y352400D01*
X208500Y352733D01*
X208167D01*
X207834Y352400D01*
Y351734D01*
X208167Y351400D01*
X208833D01*
X209166Y351734D01*
X206167Y351400D02*
Y353400D01*
X207167Y352400D01*
X205834D01*
X190044Y351400D02*
Y353400D01*
X189045D01*
X188712Y353066D01*
Y352400D01*
X189045Y352067D01*
X190044D01*
X189378D02*
X188712Y351400D01*
X186712Y353400D02*
X188045D01*
Y352400D01*
X187379Y352733D01*
X187045D01*
X186712Y352400D01*
Y351734D01*
X187045Y351400D01*
X187712D01*
X188045Y351734D01*
X186046Y353066D02*
X185713Y353400D01*
X185046D01*
X184713Y353066D01*
Y352733D01*
X185046Y352400D01*
X185379D01*
X185046D01*
X184713Y352067D01*
Y351734D01*
X185046Y351400D01*
X185713D01*
X186046Y351734D01*
X167833Y351400D02*
Y353400D01*
X166834D01*
X166500Y353066D01*
Y352400D01*
X166834Y352067D01*
X167833D01*
X167167D02*
X166500Y351400D01*
X164501Y353400D02*
X165834D01*
Y352400D01*
X165167Y352733D01*
X164834D01*
X164501Y352400D01*
Y351734D01*
X164834Y351400D01*
X165501D01*
X165834Y351734D01*
X162502Y351400D02*
X163835D01*
X162502Y352733D01*
Y353066D01*
X162835Y353400D01*
X163501D01*
X163835Y353066D01*
X144922Y351400D02*
Y353400D01*
X143922D01*
X143589Y353066D01*
Y352400D01*
X143922Y352067D01*
X144922D01*
X144256D02*
X143589Y351400D01*
X141590Y353400D02*
X142923D01*
Y352400D01*
X142256Y352733D01*
X141923D01*
X141590Y352400D01*
Y351734D01*
X141923Y351400D01*
X142590D01*
X142923Y351734D01*
X140924Y351400D02*
X140257D01*
X140590D01*
Y353400D01*
X140924Y353066D01*
X123411Y351400D02*
Y353400D01*
X122411D01*
X122078Y353066D01*
Y352400D01*
X122411Y352067D01*
X123411D01*
X122745D02*
X122078Y351400D01*
X120079Y353400D02*
X121412D01*
Y352400D01*
X120745Y352733D01*
X120412D01*
X120079Y352400D01*
Y351734D01*
X120412Y351400D01*
X121079D01*
X121412Y351734D01*
X119412Y353066D02*
X119079Y353400D01*
X118413D01*
X118079Y353066D01*
Y351734D01*
X118413Y351400D01*
X119079D01*
X119412Y351734D01*
Y353066D01*
X280266Y330200D02*
Y332200D01*
X279266D01*
X278933Y331867D01*
Y331200D01*
X279266Y330867D01*
X280266D01*
X279599D02*
X278933Y330200D01*
X278266Y331867D02*
X277933Y332200D01*
X277267D01*
X276934Y331867D01*
Y331533D01*
X277267Y331200D01*
X277600D01*
X277267D01*
X276934Y330867D01*
Y330534D01*
X277267Y330200D01*
X277933D01*
X278266Y330534D01*
X276267Y331867D02*
X275934Y332200D01*
X275267D01*
X274934Y331867D01*
Y331533D01*
X275267Y331200D01*
X275601D01*
X275267D01*
X274934Y330867D01*
Y330534D01*
X275267Y330200D01*
X275934D01*
X276267Y330534D01*
X258266Y330200D02*
Y332200D01*
X257266D01*
X256933Y331867D01*
Y331200D01*
X257266Y330867D01*
X258266D01*
X257599D02*
X256933Y330200D01*
X256266Y331867D02*
X255933Y332200D01*
X255267D01*
X254934Y331867D01*
Y331533D01*
X255267Y331200D01*
X255600D01*
X255267D01*
X254934Y330867D01*
Y330534D01*
X255267Y330200D01*
X255933D01*
X256266Y330534D01*
X252934Y330200D02*
X254267D01*
X252934Y331533D01*
Y331867D01*
X253267Y332200D01*
X253934D01*
X254267Y331867D01*
X235833Y330200D02*
Y332200D01*
X234833D01*
X234500Y331867D01*
Y331200D01*
X234833Y330867D01*
X235833D01*
X235166D02*
X234500Y330200D01*
X233833Y331867D02*
X233500Y332200D01*
X232834D01*
X232500Y331867D01*
Y331533D01*
X232834Y331200D01*
X233167D01*
X232834D01*
X232500Y330867D01*
Y330534D01*
X232834Y330200D01*
X233500D01*
X233833Y330534D01*
X231834Y330200D02*
X231167D01*
X231501D01*
Y332200D01*
X231834Y331867D01*
X213966Y330200D02*
Y332200D01*
X212966D01*
X212633Y331867D01*
Y331200D01*
X212966Y330867D01*
X213966D01*
X213299D02*
X212633Y330200D01*
X211966Y331867D02*
X211633Y332200D01*
X210967D01*
X210634Y331867D01*
Y331533D01*
X210967Y331200D01*
X211300D01*
X210967D01*
X210634Y330867D01*
Y330534D01*
X210967Y330200D01*
X211633D01*
X211966Y330534D01*
X209967Y331867D02*
X209634Y332200D01*
X208967D01*
X208634Y331867D01*
Y330534D01*
X208967Y330200D01*
X209634D01*
X209967Y330534D01*
Y331867D01*
X191466Y330200D02*
Y332200D01*
X190466D01*
X190133Y331867D01*
Y331200D01*
X190466Y330867D01*
X191466D01*
X190799D02*
X190133Y330200D01*
X188134D02*
X189467D01*
X188134Y331533D01*
Y331867D01*
X188467Y332200D01*
X189133D01*
X189467Y331867D01*
X187467Y330534D02*
X187134Y330200D01*
X186467D01*
X186134Y330534D01*
Y331867D01*
X186467Y332200D01*
X187134D01*
X187467Y331867D01*
Y331533D01*
X187134Y331200D01*
X186134D01*
X169466Y330200D02*
Y332200D01*
X168466D01*
X168133Y331867D01*
Y331200D01*
X168466Y330867D01*
X169466D01*
X168799D02*
X168133Y330200D01*
X166133D02*
X167466D01*
X166133Y331533D01*
Y331867D01*
X166467Y332200D01*
X167133D01*
X167466Y331867D01*
X165467D02*
X165134Y332200D01*
X164467D01*
X164134Y331867D01*
Y331533D01*
X164467Y331200D01*
X164134Y330867D01*
Y330534D01*
X164467Y330200D01*
X165134D01*
X165467Y330534D01*
Y330867D01*
X165134Y331200D01*
X165467Y331533D01*
Y331867D01*
X165134Y331200D02*
X164467D01*
X147166Y330200D02*
Y332200D01*
X146166D01*
X145833Y331867D01*
Y331200D01*
X146166Y330867D01*
X147166D01*
X146499D02*
X145833Y330200D01*
X143833D02*
X145167D01*
X143833Y331533D01*
Y331867D01*
X144167Y332200D01*
X144833D01*
X145167Y331867D01*
X143167Y332200D02*
X141834D01*
Y331867D01*
X143167Y330534D01*
Y330200D01*
X124866D02*
Y332200D01*
X123866D01*
X123533Y331867D01*
Y331200D01*
X123866Y330867D01*
X124866D01*
X124199D02*
X123533Y330200D01*
X121534D02*
X122866D01*
X121534Y331533D01*
Y331867D01*
X121867Y332200D01*
X122533D01*
X122866Y331867D01*
X119534Y332200D02*
X120201Y331867D01*
X120867Y331200D01*
Y330534D01*
X120534Y330200D01*
X119867D01*
X119534Y330534D01*
Y330867D01*
X119867Y331200D01*
X120867D01*
X102866Y330200D02*
Y332200D01*
X101866D01*
X101533Y331867D01*
Y331200D01*
X101866Y330867D01*
X102866D01*
X102199D02*
X101533Y330200D01*
X99534D02*
X100866D01*
X99534Y331533D01*
Y331867D01*
X99867Y332200D01*
X100533D01*
X100866Y331867D01*
X97534Y332200D02*
X98867D01*
Y331200D01*
X98201Y331533D01*
X97867D01*
X97534Y331200D01*
Y330534D01*
X97867Y330200D01*
X98534D01*
X98867Y330534D01*
X74800Y342034D02*
X76800D01*
Y343034D01*
X76467Y343367D01*
X75800D01*
X75467Y343034D01*
Y342034D01*
Y342701D02*
X74800Y343367D01*
Y345366D02*
Y344034D01*
X76133Y345366D01*
X76467D01*
X76800Y345033D01*
Y344367D01*
X76467Y344034D01*
X74800Y347033D02*
X76800D01*
X75800Y346033D01*
Y347366D01*
X99200Y351400D02*
Y353400D01*
X98200D01*
X97867Y353066D01*
Y352400D01*
X98200Y352067D01*
X99200D01*
X98534D02*
X97867Y351400D01*
X97201Y351734D02*
X96867Y351400D01*
X96201D01*
X95868Y351734D01*
Y353066D01*
X96201Y353400D01*
X96867D01*
X97201Y353066D01*
Y352733D01*
X96867Y352400D01*
X95868D01*
X373500Y371134D02*
X371834D01*
X371500Y371467D01*
Y372134D01*
X371834Y372467D01*
X373500D01*
X371500Y374133D02*
X373500D01*
X372500Y373133D01*
Y374466D01*
X342600Y378434D02*
X340934D01*
X340600Y378767D01*
Y379434D01*
X340934Y379767D01*
X342600D01*
X342267Y380433D02*
X342600Y380767D01*
Y381433D01*
X342267Y381766D01*
X341933D01*
X341600Y381433D01*
Y381100D01*
Y381433D01*
X341267Y381766D01*
X340934D01*
X340600Y381433D01*
Y380767D01*
X340934Y380433D01*
X283766Y359453D02*
Y361452D01*
X282766D01*
X282433Y361119D01*
Y360453D01*
X282766Y360120D01*
X283766D01*
X283099D02*
X282433Y359453D01*
X280767D02*
Y361452D01*
X281767Y360453D01*
X280434D01*
X279767Y361119D02*
X279434Y361452D01*
X278767D01*
X278434Y361119D01*
Y360786D01*
X278767Y360453D01*
X279101D01*
X278767D01*
X278434Y360120D01*
Y359786D01*
X278767Y359453D01*
X279434D01*
X279767Y359786D01*
X276266Y359353D02*
Y361352D01*
X275266D01*
X274933Y361019D01*
Y360353D01*
X275266Y360019D01*
X276266D01*
X275599D02*
X274933Y359353D01*
X273267D02*
Y361352D01*
X274267Y360353D01*
X272934D01*
X270934Y359353D02*
X272267D01*
X270934Y360686D01*
Y361019D01*
X271267Y361352D01*
X271934D01*
X272267Y361019D01*
X240233Y359953D02*
Y361952D01*
X239233D01*
X238900Y361619D01*
Y360953D01*
X239233Y360619D01*
X240233D01*
X239566D02*
X238900Y359953D01*
X237234D02*
Y361952D01*
X238233Y360953D01*
X236900D01*
X236234Y359953D02*
X235567D01*
X235901D01*
Y361952D01*
X236234Y361619D01*
X231966Y359753D02*
Y361752D01*
X230966D01*
X230633Y361419D01*
Y360753D01*
X230966Y360420D01*
X231966D01*
X231299D02*
X230633Y359753D01*
X228967D02*
Y361752D01*
X229966Y360753D01*
X228634D01*
X227967Y361419D02*
X227634Y361752D01*
X226967D01*
X226634Y361419D01*
Y360086D01*
X226967Y359753D01*
X227634D01*
X227967Y360086D01*
Y361419D01*
X196766Y359653D02*
Y361652D01*
X195766D01*
X195433Y361319D01*
Y360653D01*
X195766Y360319D01*
X196766D01*
X196099D02*
X195433Y359653D01*
X194766Y361319D02*
X194433Y361652D01*
X193767D01*
X193434Y361319D01*
Y360986D01*
X193767Y360653D01*
X194100D01*
X193767D01*
X193434Y360319D01*
Y359986D01*
X193767Y359653D01*
X194433D01*
X194766Y359986D01*
X192767D02*
X192434Y359653D01*
X191767D01*
X191434Y359986D01*
Y361319D01*
X191767Y361652D01*
X192434D01*
X192767Y361319D01*
Y360986D01*
X192434Y360653D01*
X191434D01*
X188266Y359353D02*
Y361352D01*
X187266D01*
X186933Y361019D01*
Y360353D01*
X187266Y360019D01*
X188266D01*
X187599D02*
X186933Y359353D01*
X186267Y361019D02*
X185933Y361352D01*
X185267D01*
X184934Y361019D01*
Y360686D01*
X185267Y360353D01*
X185600D01*
X185267D01*
X184934Y360019D01*
Y359686D01*
X185267Y359353D01*
X185933D01*
X186267Y359686D01*
X184267Y361019D02*
X183934Y361352D01*
X183267D01*
X182934Y361019D01*
Y360686D01*
X183267Y360353D01*
X182934Y360019D01*
Y359686D01*
X183267Y359353D01*
X183934D01*
X184267Y359686D01*
Y360019D01*
X183934Y360353D01*
X184267Y360686D01*
Y361019D01*
X183934Y360353D02*
X183267D01*
X152766Y359753D02*
Y361752D01*
X151766D01*
X151433Y361419D01*
Y360753D01*
X151766Y360420D01*
X152766D01*
X152099D02*
X151433Y359753D01*
X150767Y361419D02*
X150433Y361752D01*
X149767D01*
X149434Y361419D01*
Y361086D01*
X149767Y360753D01*
X150100D01*
X149767D01*
X149434Y360420D01*
Y360086D01*
X149767Y359753D01*
X150433D01*
X150767Y360086D01*
X148767Y361752D02*
X147434D01*
Y361419D01*
X148767Y360086D01*
Y359753D01*
X144466Y359653D02*
Y361652D01*
X143466D01*
X143133Y361319D01*
Y360653D01*
X143466Y360319D01*
X144466D01*
X143799D02*
X143133Y359653D01*
X142466Y361319D02*
X142133Y361652D01*
X141467D01*
X141134Y361319D01*
Y360986D01*
X141467Y360653D01*
X141800D01*
X141467D01*
X141134Y360319D01*
Y359986D01*
X141467Y359653D01*
X142133D01*
X142466Y359986D01*
X139134Y361652D02*
X139801Y361319D01*
X140467Y360653D01*
Y359986D01*
X140134Y359653D01*
X139467D01*
X139134Y359986D01*
Y360319D01*
X139467Y360653D01*
X140467D01*
X108866Y359053D02*
Y361052D01*
X107866D01*
X107533Y360719D01*
Y360053D01*
X107866Y359719D01*
X108866D01*
X108199D02*
X107533Y359053D01*
X106867Y360719D02*
X106533Y361052D01*
X105867D01*
X105534Y360719D01*
Y360386D01*
X105867Y360053D01*
X106200D01*
X105867D01*
X105534Y359719D01*
Y359386D01*
X105867Y359053D01*
X106533D01*
X106867Y359386D01*
X103534Y361052D02*
X104867D01*
Y360053D01*
X104201Y360386D01*
X103867D01*
X103534Y360053D01*
Y359386D01*
X103867Y359053D01*
X104534D01*
X104867Y359386D01*
X99766Y358953D02*
Y360952D01*
X98766D01*
X98433Y360619D01*
Y359953D01*
X98766Y359619D01*
X99766D01*
X99099D02*
X98433Y358953D01*
X97767Y360619D02*
X97433Y360952D01*
X96767D01*
X96434Y360619D01*
Y360286D01*
X96767Y359953D01*
X97100D01*
X96767D01*
X96434Y359619D01*
Y359286D01*
X96767Y358953D01*
X97433D01*
X97767Y359286D01*
X94767Y358953D02*
Y360952D01*
X95767Y359953D01*
X94434D01*
X461799Y67500D02*
Y69500D01*
X460800D01*
X460466Y69166D01*
Y68500D01*
X460800Y68167D01*
X461799D01*
X461133D02*
X460466Y67500D01*
X459800D02*
X459133D01*
X459467D01*
Y69500D01*
X459800Y69166D01*
X458134D02*
X457800Y69500D01*
X457134D01*
X456801Y69166D01*
Y68833D01*
X457134Y68500D01*
X457467D01*
X457134D01*
X456801Y68167D01*
Y67834D01*
X457134Y67500D01*
X457800D01*
X458134Y67834D01*
X344399Y79700D02*
Y81700D01*
X343400D01*
X343066Y81366D01*
Y80700D01*
X343400Y80367D01*
X344399D01*
X343733D02*
X343066Y79700D01*
X342400D02*
X341733D01*
X342067D01*
Y81700D01*
X342400Y81366D01*
X339401Y79700D02*
X340734D01*
X339401Y81033D01*
Y81366D01*
X339734Y81700D01*
X340401D01*
X340734Y81366D01*
X336966Y79800D02*
Y81800D01*
X335966D01*
X335633Y81467D01*
Y80800D01*
X335966Y80467D01*
X336966D01*
X336299D02*
X335633Y79800D01*
X334967D02*
X334300D01*
X334633D01*
Y81800D01*
X334967Y81467D01*
X333300Y79800D02*
X332634D01*
X332967D01*
Y81800D01*
X333300Y81467D01*
X98099Y80400D02*
Y82400D01*
X97100D01*
X96766Y82067D01*
Y81400D01*
X97100Y81067D01*
X98099D01*
X97433D02*
X96766Y80400D01*
X96100D02*
X95433D01*
X95767D01*
Y82400D01*
X96100Y82067D01*
X94434D02*
X94100Y82400D01*
X93434D01*
X93101Y82067D01*
Y80734D01*
X93434Y80400D01*
X94100D01*
X94434Y80734D01*
Y82067D01*
X89866Y80400D02*
Y82400D01*
X88866D01*
X88533Y82067D01*
Y81400D01*
X88866Y81067D01*
X89866D01*
X89200D02*
X88533Y80400D01*
X87867Y82067D02*
X87533Y82400D01*
X86867D01*
X86534Y82067D01*
Y81733D01*
X86867Y81400D01*
X86534Y81067D01*
Y80734D01*
X86867Y80400D01*
X87533D01*
X87867Y80734D01*
Y81067D01*
X87533Y81400D01*
X87867Y81733D01*
Y82067D01*
X87533Y81400D02*
X86867D01*
X462299Y53900D02*
Y55900D01*
X461300D01*
X460966Y55567D01*
Y54900D01*
X461300Y54567D01*
X462299D01*
X461633D02*
X460966Y53900D01*
X460300D02*
X459633D01*
X459967D01*
Y55900D01*
X460300Y55567D01*
X457301Y55900D02*
X458634D01*
Y54900D01*
X457967Y55233D01*
X457634D01*
X457301Y54900D01*
Y54234D01*
X457634Y53900D01*
X458300D01*
X458634Y54234D01*
X462499Y62300D02*
Y64300D01*
X461500D01*
X461166Y63967D01*
Y63300D01*
X461500Y62967D01*
X462499D01*
X461833D02*
X461166Y62300D01*
X460500D02*
X459833D01*
X460167D01*
Y64300D01*
X460500Y63967D01*
X457834Y62300D02*
Y64300D01*
X458834Y63300D01*
X457501D01*
X213166Y80500D02*
Y82500D01*
X212166D01*
X211833Y82166D01*
Y81500D01*
X212166Y81167D01*
X213166D01*
X212500D02*
X211833Y80500D01*
X211167Y82500D02*
X209834D01*
Y82166D01*
X211167Y80834D01*
Y80500D01*
X218666Y80400D02*
Y82400D01*
X217666D01*
X217333Y82067D01*
Y81400D01*
X217666Y81067D01*
X218666D01*
X218000D02*
X217333Y80400D01*
X215334Y82400D02*
X216000Y82067D01*
X216667Y81400D01*
Y80734D01*
X216334Y80400D01*
X215667D01*
X215334Y80734D01*
Y81067D01*
X215667Y81400D01*
X216667D01*
X224566Y80400D02*
Y82400D01*
X223566D01*
X223233Y82067D01*
Y81400D01*
X223566Y81067D01*
X224566D01*
X223900D02*
X223233Y80400D01*
X221234Y82400D02*
X222567D01*
Y81400D01*
X221900Y81733D01*
X221567D01*
X221234Y81400D01*
Y80734D01*
X221567Y80400D01*
X222234D01*
X222567Y80734D01*
X358966Y396700D02*
Y398700D01*
X357966D01*
X357633Y398366D01*
Y397700D01*
X357966Y397367D01*
X358966D01*
X358300D02*
X357633Y396700D01*
X356967Y398366D02*
X356633Y398700D01*
X355967D01*
X355634Y398366D01*
Y398033D01*
X355967Y397700D01*
X356300D01*
X355967D01*
X355634Y397367D01*
Y397034D01*
X355967Y396700D01*
X356633D01*
X356967Y397034D01*
X345266Y396600D02*
Y398600D01*
X344266D01*
X343933Y398267D01*
Y397600D01*
X344266Y397267D01*
X345266D01*
X344600D02*
X343933Y396600D01*
X341934D02*
X343267D01*
X341934Y397933D01*
Y398267D01*
X342267Y398600D01*
X342934D01*
X343267Y398267D01*
X337933Y371100D02*
Y373100D01*
X336933D01*
X336600Y372766D01*
Y372100D01*
X336933Y371767D01*
X337933D01*
X337266D02*
X336600Y371100D01*
X335934D02*
X335267D01*
X335600D01*
Y373100D01*
X335934Y372766D01*
X362333Y390667D02*
X362666Y391000D01*
X363333D01*
X363666Y390667D01*
Y389334D01*
X363333Y389000D01*
X362666D01*
X362333Y389334D01*
X361667D02*
X361333Y389000D01*
X360667D01*
X360334Y389334D01*
Y390667D01*
X360667Y391000D01*
X361333D01*
X361667Y390667D01*
Y390333D01*
X361333Y390000D01*
X360334D01*
X378033Y367367D02*
X378366Y367700D01*
X379033D01*
X379366Y367367D01*
Y366034D01*
X379033Y365700D01*
X378366D01*
X378033Y366034D01*
X377367Y367367D02*
X377033Y367700D01*
X376367D01*
X376034Y367367D01*
Y367033D01*
X376367Y366700D01*
X376034Y366367D01*
Y366034D01*
X376367Y365700D01*
X377033D01*
X377367Y366034D01*
Y366367D01*
X377033Y366700D01*
X377367Y367033D01*
Y367367D01*
X377033Y366700D02*
X376367D01*
X365833Y357167D02*
X366166Y357500D01*
X366833D01*
X367166Y357167D01*
Y355834D01*
X366833Y355500D01*
X366166D01*
X365833Y355834D01*
X365167Y357500D02*
X363834D01*
Y357167D01*
X365167Y355834D01*
Y355500D01*
D127*
X19559Y165362D02*
G03*
X19559Y165362I-591J0D01*
G01*
M02*
