G04*
G04 #@! TF.GenerationSoftware,Altium Limited,Altium Designer,20.0.10 (225)*
G04*
G04 Layer_Color=16711935*
%FSLAX25Y25*%
%MOIN*%
G70*
G01*
G75*
%ADD31R,0.03556X0.04343*%
%ADD32R,0.04147X0.03556*%
%ADD36R,0.04343X0.03556*%
%ADD37C,0.05800*%
%ADD38C,0.10249*%
%ADD39C,0.05556*%
%ADD40R,0.05556X0.05556*%
%ADD41C,0.12800*%
%ADD42C,0.06500*%
%ADD43R,0.06500X0.06500*%
%ADD44C,0.07400*%
%ADD45C,0.08700*%
%ADD46C,0.11100*%
%ADD47O,0.01800X0.04800*%
%ADD48O,0.04800X0.01800*%
%ADD49C,0.07296*%
%ADD50R,0.07296X0.07296*%
%ADD51R,0.06902X0.06902*%
%ADD52C,0.06902*%
%ADD53C,0.17700*%
%ADD54R,0.06902X0.06902*%
%ADD55C,0.02800*%
%ADD125C,0.03320*%
%ADD126R,0.04737X0.06312*%
%ADD127R,0.04343X0.03950*%
G04:AMPARAMS|DCode=128|XSize=19.81mil|YSize=47.37mil|CornerRadius=5.95mil|HoleSize=0mil|Usage=FLASHONLY|Rotation=180.000|XOffset=0mil|YOffset=0mil|HoleType=Round|Shape=RoundedRectangle|*
%AMROUNDEDRECTD128*
21,1,0.01981,0.03547,0,0,180.0*
21,1,0.00791,0.04737,0,0,180.0*
1,1,0.01190,-0.00396,0.01774*
1,1,0.01190,0.00396,0.01774*
1,1,0.01190,0.00396,-0.01774*
1,1,0.01190,-0.00396,-0.01774*
%
%ADD128ROUNDEDRECTD128*%
%ADD129R,0.04934X0.04934*%
G04:AMPARAMS|DCode=130|XSize=33.59mil|YSize=55.24mil|CornerRadius=5.92mil|HoleSize=0mil|Usage=FLASHONLY|Rotation=180.000|XOffset=0mil|YOffset=0mil|HoleType=Round|Shape=RoundedRectangle|*
%AMROUNDEDRECTD130*
21,1,0.03359,0.04341,0,0,180.0*
21,1,0.02175,0.05524,0,0,180.0*
1,1,0.01184,-0.01088,0.02170*
1,1,0.01184,0.01088,0.02170*
1,1,0.01184,0.01088,-0.02170*
1,1,0.01184,-0.01088,-0.02170*
%
%ADD130ROUNDEDRECTD130*%
%ADD131R,0.04540X0.04934*%
%ADD132R,0.05721X0.05131*%
D31*
X280753Y335300D02*
D03*
X274847D02*
D03*
X258540D02*
D03*
X252635D02*
D03*
X236328D02*
D03*
X230422D02*
D03*
X214115Y335300D02*
D03*
X208210D02*
D03*
X191903Y335300D02*
D03*
X185997D02*
D03*
X169690D02*
D03*
X163785D02*
D03*
X147478D02*
D03*
X141572D02*
D03*
X125265D02*
D03*
X119360D02*
D03*
X103053D02*
D03*
X97147D02*
D03*
X465147Y55800D02*
D03*
X471053D02*
D03*
X465147Y61400D02*
D03*
X471053D02*
D03*
X465147Y67600D02*
D03*
X471053D02*
D03*
D32*
X341000Y375461D02*
D03*
Y370539D02*
D03*
D36*
X208755Y343247D02*
D03*
Y349153D02*
D03*
X231100Y343200D02*
D03*
Y349106D02*
D03*
X253178Y343247D02*
D03*
Y349153D02*
D03*
X275389Y343247D02*
D03*
Y349153D02*
D03*
X297600Y343247D02*
D03*
Y349153D02*
D03*
X80100Y341747D02*
D03*
Y347653D02*
D03*
X88500Y71547D02*
D03*
Y77453D02*
D03*
X95000Y71547D02*
D03*
Y77453D02*
D03*
X211500Y71547D02*
D03*
Y77453D02*
D03*
X217000Y71547D02*
D03*
Y77453D02*
D03*
X223000Y71547D02*
D03*
Y77453D02*
D03*
X335000Y71047D02*
D03*
Y76953D02*
D03*
X341500Y71047D02*
D03*
Y76953D02*
D03*
X186544Y349153D02*
D03*
Y343247D02*
D03*
X164333Y349153D02*
D03*
Y343247D02*
D03*
X142122Y349153D02*
D03*
Y343247D02*
D03*
X119911Y349153D02*
D03*
Y343247D02*
D03*
X97700Y349153D02*
D03*
Y343247D02*
D03*
X98300Y369605D02*
D03*
Y363700D02*
D03*
X149300Y370605D02*
D03*
Y364700D02*
D03*
X186300Y370106D02*
D03*
Y364200D02*
D03*
X237300Y370106D02*
D03*
Y364200D02*
D03*
X274300Y370106D02*
D03*
Y364200D02*
D03*
X105300Y369605D02*
D03*
Y363700D02*
D03*
X142300Y370605D02*
D03*
Y364700D02*
D03*
X193300Y370106D02*
D03*
Y364200D02*
D03*
X230300Y370106D02*
D03*
Y364200D02*
D03*
X281300Y370106D02*
D03*
Y364200D02*
D03*
D37*
X42000Y170949D02*
D03*
X54008Y385051D02*
D03*
D38*
X321957Y222277D02*
D03*
X185737D02*
D03*
D39*
X227272Y214600D02*
D03*
X233178D02*
D03*
X239084D02*
D03*
X244989D02*
D03*
X250894D02*
D03*
X256800D02*
D03*
X262705D02*
D03*
X268611D02*
D03*
X274517D02*
D03*
D40*
X280422D02*
D03*
D41*
X383200Y61100D02*
D03*
X481600D02*
D03*
X260300Y61000D02*
D03*
X358700D02*
D03*
X14000Y61500D02*
D03*
X112400D02*
D03*
X137300D02*
D03*
X235700D02*
D03*
D42*
X413400Y51100D02*
D03*
X422400D02*
D03*
X431400D02*
D03*
X440400D02*
D03*
X449400D02*
D03*
X417900Y61100D02*
D03*
X426900D02*
D03*
X435900D02*
D03*
X444900D02*
D03*
X453900D02*
D03*
X413400Y71100D02*
D03*
X422400D02*
D03*
X431400D02*
D03*
X440400D02*
D03*
X290500Y51000D02*
D03*
X299500D02*
D03*
X308500D02*
D03*
X317500D02*
D03*
X326500D02*
D03*
X295000Y61000D02*
D03*
X304000D02*
D03*
X313000D02*
D03*
X322000D02*
D03*
X331000D02*
D03*
X290500Y71000D02*
D03*
X299500D02*
D03*
X308500D02*
D03*
X317500D02*
D03*
X44200Y51500D02*
D03*
X53200D02*
D03*
X62200D02*
D03*
X71200D02*
D03*
X80200D02*
D03*
X48700Y61500D02*
D03*
X57700D02*
D03*
X66700D02*
D03*
X75700D02*
D03*
X84700D02*
D03*
X44200Y71500D02*
D03*
X53200D02*
D03*
X62200D02*
D03*
X71200D02*
D03*
X167500Y51500D02*
D03*
X176500D02*
D03*
X185500D02*
D03*
X194500D02*
D03*
X203500D02*
D03*
X172000Y61500D02*
D03*
X181000D02*
D03*
X190000D02*
D03*
X199000D02*
D03*
X208000D02*
D03*
X167500Y71500D02*
D03*
X176500D02*
D03*
X185500D02*
D03*
X194500D02*
D03*
D43*
X449400Y71100D02*
D03*
X326500Y71000D02*
D03*
X80200Y71500D02*
D03*
X203500D02*
D03*
D44*
X90800Y374153D02*
D03*
Y384153D02*
D03*
Y364153D02*
D03*
X112800Y374153D02*
D03*
Y384153D02*
D03*
Y364153D02*
D03*
X134800Y374153D02*
D03*
Y384153D02*
D03*
Y364153D02*
D03*
X156800Y374153D02*
D03*
Y384153D02*
D03*
Y364153D02*
D03*
X178800Y374153D02*
D03*
Y384153D02*
D03*
Y364153D02*
D03*
X200800Y374153D02*
D03*
Y384153D02*
D03*
Y364153D02*
D03*
X222800Y374153D02*
D03*
Y384153D02*
D03*
Y364153D02*
D03*
X244800Y374153D02*
D03*
Y384153D02*
D03*
Y364153D02*
D03*
X266800Y374153D02*
D03*
Y384153D02*
D03*
Y364153D02*
D03*
X288800Y374153D02*
D03*
Y384153D02*
D03*
Y364153D02*
D03*
D45*
X362600Y226500D02*
D03*
X350000D02*
D03*
Y288700D02*
D03*
X362600D02*
D03*
D46*
X356300Y239100D02*
D03*
Y276100D02*
D03*
Y257600D02*
D03*
D47*
X387700Y147600D02*
D03*
X397900Y147300D02*
D03*
D48*
X390200Y381200D02*
D03*
X389900Y371000D02*
D03*
D49*
X463000Y129000D02*
D03*
Y139000D02*
D03*
Y149000D02*
D03*
Y159000D02*
D03*
X473000Y129000D02*
D03*
Y139000D02*
D03*
Y149000D02*
D03*
Y159000D02*
D03*
X463000Y209000D02*
D03*
X473000D02*
D03*
X463000Y229000D02*
D03*
X473000D02*
D03*
X463000Y249000D02*
D03*
X473000D02*
D03*
X463000Y269000D02*
D03*
X473000D02*
D03*
X463000Y279000D02*
D03*
X473000Y259000D02*
D03*
X463000D02*
D03*
X473000Y239000D02*
D03*
X463000D02*
D03*
X473000Y219000D02*
D03*
X463000D02*
D03*
X473000Y199000D02*
D03*
X463000D02*
D03*
X473000Y189000D02*
D03*
X463000D02*
D03*
X473000Y179000D02*
D03*
X463000D02*
D03*
X473000Y169000D02*
D03*
X463000D02*
D03*
D50*
X473000Y279000D02*
D03*
D51*
X87700Y139100D02*
D03*
X97000Y213500D02*
D03*
X142000Y225000D02*
D03*
X156000Y244500D02*
D03*
D52*
X87700Y149100D02*
D03*
X97000Y223500D02*
D03*
Y233500D02*
D03*
Y243500D02*
D03*
Y253500D02*
D03*
X87000Y213500D02*
D03*
Y223500D02*
D03*
Y233500D02*
D03*
Y243500D02*
D03*
Y253500D02*
D03*
X139000Y201500D02*
D03*
X237500Y176500D02*
D03*
X247500D02*
D03*
X257500D02*
D03*
X142000Y235000D02*
D03*
Y245000D02*
D03*
X156000Y234500D02*
D03*
X202000Y137100D02*
D03*
Y151000D02*
D03*
X305000Y169500D02*
D03*
X315000D02*
D03*
X325000D02*
D03*
X335000D02*
D03*
X345000D02*
D03*
D53*
X476000Y369000D02*
D03*
Y104700D02*
D03*
D54*
X129000Y201500D02*
D03*
X267500Y176500D02*
D03*
X192000Y137100D02*
D03*
Y151000D02*
D03*
X355000Y169500D02*
D03*
D55*
X69346Y258700D02*
D03*
X83500D02*
D03*
X101800Y375653D02*
D03*
X68500Y238100D02*
D03*
X351300Y389000D02*
D03*
X326900Y362200D02*
D03*
X164225Y339275D02*
D03*
X299028Y375128D02*
D03*
X230133Y339353D02*
D03*
X334400Y381500D02*
D03*
X373300Y352500D02*
D03*
X360000Y348000D02*
D03*
X368900Y354800D02*
D03*
X239300Y200300D02*
D03*
X389100Y182900D02*
D03*
X158700Y311600D02*
D03*
X180600Y313400D02*
D03*
X399700Y211800D02*
D03*
X385850Y294650D02*
D03*
X392200Y297900D02*
D03*
X403100Y302500D02*
D03*
X242600Y190100D02*
D03*
X153600Y161000D02*
D03*
Y185900D02*
D03*
X368441Y216141D02*
D03*
X288500Y106600D02*
D03*
X329900Y287400D02*
D03*
X329600Y292800D02*
D03*
X339000Y296500D02*
D03*
X69800Y253500D02*
D03*
X59500Y379400D02*
D03*
X330200Y239040D02*
D03*
Y234900D02*
D03*
Y243180D02*
D03*
Y247320D02*
D03*
Y251460D02*
D03*
Y255600D02*
D03*
X299970Y253970D02*
D03*
X112700Y263600D02*
D03*
X121500Y187800D02*
D03*
X327400Y354500D02*
D03*
X361000Y356500D02*
D03*
X335900Y375500D02*
D03*
X80600Y337600D02*
D03*
X257500Y84700D02*
D03*
X368000Y294800D02*
D03*
X394100Y307000D02*
D03*
X361200Y297900D02*
D03*
Y302500D02*
D03*
Y307200D02*
D03*
X153600Y203500D02*
D03*
X52000Y338000D02*
D03*
X46900Y337900D02*
D03*
X41976Y352976D02*
D03*
X68500Y366600D02*
D03*
X32352Y352952D02*
D03*
X22000Y358000D02*
D03*
X62800Y383800D02*
D03*
X65982Y391818D02*
D03*
X259500Y351800D02*
D03*
X239900Y351400D02*
D03*
X217300D02*
D03*
X186370Y339530D02*
D03*
X195500Y353200D02*
D03*
X173100Y352300D02*
D03*
X150000Y351700D02*
D03*
X127100Y352300D02*
D03*
X212700Y329600D02*
D03*
X280900Y350400D02*
D03*
X279200Y330300D02*
D03*
X257100Y330200D02*
D03*
X234400Y330400D02*
D03*
X190300Y330100D02*
D03*
X224800Y313400D02*
D03*
X203700D02*
D03*
X299200Y355250D02*
D03*
Y370287D02*
D03*
Y365275D02*
D03*
Y360262D02*
D03*
X145500Y376100D02*
D03*
X168200Y330400D02*
D03*
X145300Y330300D02*
D03*
X119070Y339322D02*
D03*
X124400Y330200D02*
D03*
X100700Y330300D02*
D03*
X103200Y351200D02*
D03*
X96900Y339400D02*
D03*
X271900Y313400D02*
D03*
X245265D02*
D03*
X136400Y309000D02*
D03*
X122700Y306100D02*
D03*
X116500Y305800D02*
D03*
X86500Y298600D02*
D03*
X208700Y339500D02*
D03*
X111125Y294200D02*
D03*
X116800D02*
D03*
X252600Y339100D02*
D03*
X105450Y294200D02*
D03*
X71100Y356100D02*
D03*
X75152Y360952D02*
D03*
X79900Y364400D02*
D03*
X84311Y367991D02*
D03*
X94100Y294200D02*
D03*
X99775D02*
D03*
X111600Y268600D02*
D03*
X87000Y268000D02*
D03*
X83500Y291500D02*
D03*
X80500Y288500D02*
D03*
X77500Y286000D02*
D03*
X74500Y283500D02*
D03*
X42000Y188000D02*
D03*
X39600Y176700D02*
D03*
X41945Y192555D02*
D03*
X80300Y324900D02*
D03*
X141281Y339322D02*
D03*
X277039Y166650D02*
D03*
X170600Y119000D02*
D03*
X288500Y118800D02*
D03*
X279600Y132700D02*
D03*
X114319Y202575D02*
D03*
X41600Y263000D02*
D03*
X15500Y235200D02*
D03*
X17100Y238200D02*
D03*
X22000Y237900D02*
D03*
X21800Y243100D02*
D03*
X15500Y250500D02*
D03*
X16900Y258000D02*
D03*
X21900Y257900D02*
D03*
X22000Y263100D02*
D03*
X15400Y270500D02*
D03*
X31900Y272700D02*
D03*
X32300Y268000D02*
D03*
X37000Y267700D02*
D03*
X42200Y273000D02*
D03*
X42000Y268100D02*
D03*
X402900Y203000D02*
D03*
X266000Y71900D02*
D03*
X252900Y75100D02*
D03*
X471200Y49900D02*
D03*
X368900Y67400D02*
D03*
X16500Y378500D02*
D03*
X16799Y358116D02*
D03*
X37100Y333100D02*
D03*
X67600Y303000D02*
D03*
X37100Y263100D02*
D03*
X52000Y198200D02*
D03*
X360000Y156500D02*
D03*
X46800Y253100D02*
D03*
X68800Y245700D02*
D03*
X51800Y218000D02*
D03*
Y233150D02*
D03*
X67327Y242902D02*
D03*
X47000Y188000D02*
D03*
X42000Y278000D02*
D03*
X37000Y303000D02*
D03*
X37040Y322960D02*
D03*
X42000Y373000D02*
D03*
X400200Y197100D02*
D03*
X175300Y123100D02*
D03*
X103100Y161400D02*
D03*
X103000Y167600D02*
D03*
X170700Y154700D02*
D03*
X175300Y154800D02*
D03*
X175400Y161400D02*
D03*
X170600Y161300D02*
D03*
X344100Y318200D02*
D03*
X335168Y327407D02*
D03*
X335100Y323100D02*
D03*
Y318500D02*
D03*
Y314300D02*
D03*
X344000Y313900D02*
D03*
Y309300D02*
D03*
Y305500D02*
D03*
X86800Y293300D02*
D03*
X357500Y390550D02*
D03*
X361800Y393500D02*
D03*
X366500Y390500D02*
D03*
X416262Y82524D02*
D03*
X421962Y82324D02*
D03*
X365400Y82800D02*
D03*
X393400Y63800D02*
D03*
X388762Y79724D02*
D03*
X74107Y368093D02*
D03*
X62500Y389300D02*
D03*
X17000Y298000D02*
D03*
X25300Y268236D02*
D03*
X22000Y338000D02*
D03*
X32200Y282900D02*
D03*
X32000Y288000D02*
D03*
X347000Y77000D02*
D03*
X170600Y168800D02*
D03*
X170700Y175900D02*
D03*
X175400Y168800D02*
D03*
X175300Y176200D02*
D03*
X158000Y203500D02*
D03*
X119300Y231600D02*
D03*
X118800Y241000D02*
D03*
X145787Y256250D02*
D03*
X104500Y248871D02*
D03*
X101163Y239663D02*
D03*
X79282Y253482D02*
D03*
X41700Y258000D02*
D03*
X32300Y258054D02*
D03*
X79000Y215600D02*
D03*
X37100Y247900D02*
D03*
X15500Y330500D02*
D03*
X16000Y310500D02*
D03*
X17000Y278000D02*
D03*
X16500Y318000D02*
D03*
X15500Y290500D02*
D03*
X68500Y231450D02*
D03*
X74561D02*
D03*
X129800Y260400D02*
D03*
X139287Y272547D02*
D03*
X67600Y327600D02*
D03*
X94800Y267600D02*
D03*
X275400Y339400D02*
D03*
X284000Y130000D02*
D03*
X267000Y169000D02*
D03*
X277500Y174500D02*
D03*
X273965Y171000D02*
D03*
X148000Y213500D02*
D03*
X102000Y191000D02*
D03*
X42015Y208000D02*
D03*
X103500Y221000D02*
D03*
X37000Y218018D02*
D03*
X42000Y218000D02*
D03*
X37000Y233000D02*
D03*
X70000Y197000D02*
D03*
X42000Y203000D02*
D03*
X47000Y198000D02*
D03*
X42000Y213000D02*
D03*
X211229Y92607D02*
D03*
X233500Y98000D02*
D03*
X251000Y95500D02*
D03*
X258500Y89000D02*
D03*
X244000Y88500D02*
D03*
X265000D02*
D03*
X151764Y256274D02*
D03*
X354047Y345744D02*
D03*
X37000Y308000D02*
D03*
Y318000D02*
D03*
X68500Y273000D02*
D03*
X81000Y238500D02*
D03*
Y245000D02*
D03*
X302250Y213500D02*
D03*
Y209550D02*
D03*
X37000Y278000D02*
D03*
Y283000D02*
D03*
Y293000D02*
D03*
Y298000D02*
D03*
X293498Y228502D02*
D03*
X349437Y345634D02*
D03*
X349500Y360000D02*
D03*
X354000Y363000D02*
D03*
X325500Y375000D02*
D03*
X41982Y232982D02*
D03*
X37000Y238000D02*
D03*
X74500Y238500D02*
D03*
X77500Y241000D02*
D03*
X71500Y281000D02*
D03*
X37000Y223000D02*
D03*
X228500Y77273D02*
D03*
X100000Y77500D02*
D03*
X16000Y99500D02*
D03*
X22000D02*
D03*
X21997Y90376D02*
D03*
X19000Y90500D02*
D03*
X13000D02*
D03*
X16000D02*
D03*
X19000Y80500D02*
D03*
X13000Y77500D02*
D03*
X124500Y287500D02*
D03*
X27597Y169965D02*
D03*
X27500Y161036D02*
D03*
X24000Y174000D02*
D03*
X170000Y285000D02*
D03*
X42000Y198000D02*
D03*
X21700Y193000D02*
D03*
Y188000D02*
D03*
Y208000D02*
D03*
Y203000D02*
D03*
X22100Y232466D02*
D03*
X16750Y338000D02*
D03*
X37000Y243000D02*
D03*
X47000Y328000D02*
D03*
X22000Y343000D02*
D03*
X15500Y370500D02*
D03*
Y350500D02*
D03*
X42000Y228000D02*
D03*
X237500Y184500D02*
D03*
X250800Y204500D02*
D03*
X382000Y271500D02*
D03*
Y243500D02*
D03*
X42000Y253000D02*
D03*
Y248000D02*
D03*
Y223000D02*
D03*
X244800Y204500D02*
D03*
X343500Y348000D02*
D03*
X443500Y221000D02*
D03*
X170000Y291000D02*
D03*
X341803Y389461D02*
D03*
X140787Y281047D02*
D03*
X134787Y272547D02*
D03*
X189800Y376238D02*
D03*
X234300Y376153D02*
D03*
X277800D02*
D03*
D125*
X64500Y375500D02*
D03*
X59500D02*
D03*
X54500D02*
D03*
X49500D02*
D03*
X44500D02*
D03*
X39500D02*
D03*
X34500D02*
D03*
X29500D02*
D03*
X24500D02*
D03*
X19500D02*
D03*
X64500Y370500D02*
D03*
X59500D02*
D03*
X54500D02*
D03*
X49500D02*
D03*
X44500D02*
D03*
X39500D02*
D03*
X34500D02*
D03*
X29500D02*
D03*
X24500D02*
D03*
X19500D02*
D03*
X64500Y365500D02*
D03*
X59500D02*
D03*
X54500D02*
D03*
X49500D02*
D03*
X44500D02*
D03*
X39500D02*
D03*
X34500D02*
D03*
X29500D02*
D03*
X24500D02*
D03*
X19500D02*
D03*
X64500Y360500D02*
D03*
X59500D02*
D03*
X54500D02*
D03*
X49500D02*
D03*
X44500D02*
D03*
X39500D02*
D03*
X34500D02*
D03*
X29500D02*
D03*
X24500D02*
D03*
X19500D02*
D03*
X64500Y355500D02*
D03*
X59500D02*
D03*
X54500D02*
D03*
X49500D02*
D03*
X44500D02*
D03*
X39500D02*
D03*
X34500D02*
D03*
X29500D02*
D03*
X24500D02*
D03*
X19500D02*
D03*
X64500Y350500D02*
D03*
X59500D02*
D03*
X54500D02*
D03*
X49500D02*
D03*
X44500D02*
D03*
X39500D02*
D03*
X34500D02*
D03*
X29500D02*
D03*
X24500D02*
D03*
X19500D02*
D03*
X64500Y345500D02*
D03*
X59500D02*
D03*
X54500D02*
D03*
X49500D02*
D03*
X44500D02*
D03*
X39500D02*
D03*
X34500D02*
D03*
X29500D02*
D03*
X24500D02*
D03*
X19500D02*
D03*
X64500Y340500D02*
D03*
X59500D02*
D03*
X54500D02*
D03*
X49500D02*
D03*
X44500D02*
D03*
X39500D02*
D03*
X34500D02*
D03*
X29500D02*
D03*
X24500D02*
D03*
X19500D02*
D03*
X64500Y335500D02*
D03*
X59500D02*
D03*
X54500D02*
D03*
X49500D02*
D03*
X44500D02*
D03*
X39500D02*
D03*
X34500D02*
D03*
X29500D02*
D03*
X24500D02*
D03*
X19500D02*
D03*
X64500Y330500D02*
D03*
X59500D02*
D03*
X54500D02*
D03*
X49500D02*
D03*
X44500D02*
D03*
X39500D02*
D03*
X34500D02*
D03*
X29500D02*
D03*
X24500D02*
D03*
X19500D02*
D03*
X64500Y325500D02*
D03*
X59500D02*
D03*
X54500D02*
D03*
X49500D02*
D03*
X44500D02*
D03*
X39500D02*
D03*
X34500D02*
D03*
X29500D02*
D03*
X24500D02*
D03*
X19500D02*
D03*
X64500Y320500D02*
D03*
X59500D02*
D03*
X54500D02*
D03*
X49500D02*
D03*
X44500D02*
D03*
X39500D02*
D03*
X34500D02*
D03*
X29500D02*
D03*
X24500D02*
D03*
X19500D02*
D03*
X64500Y315500D02*
D03*
X59500D02*
D03*
X54500D02*
D03*
X49500D02*
D03*
X44500D02*
D03*
X39500D02*
D03*
X34500D02*
D03*
X29500D02*
D03*
X24500D02*
D03*
X19500D02*
D03*
X64500Y310500D02*
D03*
X59500D02*
D03*
X54500D02*
D03*
X49500D02*
D03*
X44500D02*
D03*
X39500D02*
D03*
X34500D02*
D03*
X29500D02*
D03*
X24500D02*
D03*
X19500D02*
D03*
X64500Y305500D02*
D03*
X59500D02*
D03*
X54500D02*
D03*
X49500D02*
D03*
X44500D02*
D03*
X39500D02*
D03*
X34500D02*
D03*
X29500D02*
D03*
X24500D02*
D03*
X19500D02*
D03*
X64500Y300500D02*
D03*
X59500D02*
D03*
X54500D02*
D03*
X49500D02*
D03*
X44500D02*
D03*
X39500D02*
D03*
X34500D02*
D03*
X29500D02*
D03*
X24500D02*
D03*
X19500D02*
D03*
X64500Y295500D02*
D03*
X59500D02*
D03*
X54500D02*
D03*
X49500D02*
D03*
X44500D02*
D03*
X39500D02*
D03*
X34500D02*
D03*
X29500D02*
D03*
X24500D02*
D03*
X19500D02*
D03*
X64500Y290500D02*
D03*
X59500D02*
D03*
X54500D02*
D03*
X49500D02*
D03*
X44500D02*
D03*
X39500D02*
D03*
X34500D02*
D03*
X29500D02*
D03*
X24500D02*
D03*
X19500D02*
D03*
X64500Y285500D02*
D03*
X59500D02*
D03*
X54500D02*
D03*
X49500D02*
D03*
X44500D02*
D03*
X39500D02*
D03*
X34500D02*
D03*
X29500D02*
D03*
X24500D02*
D03*
X19500D02*
D03*
X64500Y280500D02*
D03*
X59500D02*
D03*
X54500D02*
D03*
X49500D02*
D03*
X44500D02*
D03*
X39500D02*
D03*
X34500D02*
D03*
X29500D02*
D03*
X24500D02*
D03*
X19500D02*
D03*
X64500Y275500D02*
D03*
X59500D02*
D03*
X54500D02*
D03*
X49500D02*
D03*
X44500D02*
D03*
X39500D02*
D03*
X34500D02*
D03*
X29500D02*
D03*
X24500D02*
D03*
X19500D02*
D03*
X64500Y270500D02*
D03*
X59500D02*
D03*
X54500D02*
D03*
X49500D02*
D03*
X44500D02*
D03*
X39500D02*
D03*
X34500D02*
D03*
X29500D02*
D03*
X24500D02*
D03*
X19500D02*
D03*
X64500Y265500D02*
D03*
X59500D02*
D03*
X54500D02*
D03*
X49500D02*
D03*
X44500D02*
D03*
X39500D02*
D03*
X34500D02*
D03*
X29500D02*
D03*
X24500D02*
D03*
X19500D02*
D03*
X64500Y260500D02*
D03*
X59500D02*
D03*
X54500D02*
D03*
X49500D02*
D03*
X44500D02*
D03*
X39500D02*
D03*
X34500D02*
D03*
X29500D02*
D03*
X24500D02*
D03*
X19500D02*
D03*
X64500Y255500D02*
D03*
X59500D02*
D03*
X54500D02*
D03*
X49500D02*
D03*
X44500D02*
D03*
X39500D02*
D03*
X34500D02*
D03*
X29500D02*
D03*
X24500D02*
D03*
X19500D02*
D03*
X64500Y250500D02*
D03*
X59500D02*
D03*
X54500D02*
D03*
X49500D02*
D03*
X44500D02*
D03*
X39500D02*
D03*
X34500D02*
D03*
X29500D02*
D03*
X24500D02*
D03*
X19500D02*
D03*
X64500Y245500D02*
D03*
X59500D02*
D03*
X54500D02*
D03*
X49500D02*
D03*
X44500D02*
D03*
X39500D02*
D03*
X34500D02*
D03*
X29500D02*
D03*
X24500D02*
D03*
X19500D02*
D03*
X64500Y240500D02*
D03*
X59500D02*
D03*
X54500D02*
D03*
X49500D02*
D03*
X44500D02*
D03*
X39500D02*
D03*
X34500D02*
D03*
X29500D02*
D03*
X24500D02*
D03*
X19500D02*
D03*
X64500Y235500D02*
D03*
X59500D02*
D03*
X54500D02*
D03*
X49500D02*
D03*
X44500D02*
D03*
X39500D02*
D03*
X34500D02*
D03*
X29500D02*
D03*
X24500D02*
D03*
X19500D02*
D03*
X64500Y230500D02*
D03*
X59500D02*
D03*
X54500D02*
D03*
X49500D02*
D03*
X44500D02*
D03*
X39500D02*
D03*
X34500D02*
D03*
X29500D02*
D03*
X24500D02*
D03*
X19500D02*
D03*
X64500Y225500D02*
D03*
X59500D02*
D03*
X54500D02*
D03*
X49500D02*
D03*
X44500D02*
D03*
X39500D02*
D03*
X34500D02*
D03*
X29500D02*
D03*
X24500D02*
D03*
X19500D02*
D03*
X64500Y220500D02*
D03*
X59500D02*
D03*
X54500D02*
D03*
X49500D02*
D03*
X44500D02*
D03*
X39500D02*
D03*
X34500D02*
D03*
X29500D02*
D03*
X24500D02*
D03*
X19500D02*
D03*
X64500Y215500D02*
D03*
X59500D02*
D03*
X54500D02*
D03*
X49500D02*
D03*
X44500D02*
D03*
X39500D02*
D03*
X34500D02*
D03*
X29500D02*
D03*
X24500D02*
D03*
X19500D02*
D03*
X64500Y210500D02*
D03*
X59500D02*
D03*
X54500D02*
D03*
X49500D02*
D03*
X44500D02*
D03*
X39500D02*
D03*
X34500D02*
D03*
X29500D02*
D03*
X24500D02*
D03*
X19500D02*
D03*
X64500Y205500D02*
D03*
X59500D02*
D03*
X54500D02*
D03*
X49500D02*
D03*
X44500D02*
D03*
X39500D02*
D03*
X34500D02*
D03*
X29500D02*
D03*
X24500D02*
D03*
X19500D02*
D03*
X64500Y200500D02*
D03*
X59500D02*
D03*
X54500D02*
D03*
X49500D02*
D03*
X44500D02*
D03*
X39500D02*
D03*
X34500D02*
D03*
X29500D02*
D03*
X24500D02*
D03*
X19500D02*
D03*
X64500Y195500D02*
D03*
X59500D02*
D03*
X54500D02*
D03*
X49500D02*
D03*
X44500D02*
D03*
X39500D02*
D03*
X34500D02*
D03*
X29500D02*
D03*
X24500D02*
D03*
X19500D02*
D03*
X64500Y190500D02*
D03*
X59500D02*
D03*
X54500D02*
D03*
X49500D02*
D03*
X44500D02*
D03*
X39500D02*
D03*
X34500D02*
D03*
X29500D02*
D03*
X24500D02*
D03*
X19500D02*
D03*
X64500Y185500D02*
D03*
X59500D02*
D03*
X54500D02*
D03*
X49500D02*
D03*
X44500D02*
D03*
X39500D02*
D03*
X34500D02*
D03*
X29500D02*
D03*
X24500D02*
D03*
X19500D02*
D03*
X64500Y180500D02*
D03*
X59500D02*
D03*
X54500D02*
D03*
X49500D02*
D03*
X44500D02*
D03*
X39500D02*
D03*
X34500D02*
D03*
X29500D02*
D03*
X24500D02*
D03*
X19500D02*
D03*
D126*
X88900Y347331D02*
D03*
X85160Y338669D02*
D03*
X92640D02*
D03*
X111111Y347331D02*
D03*
X107371Y338669D02*
D03*
X114851D02*
D03*
X133322Y347331D02*
D03*
X129582Y338669D02*
D03*
X137062D02*
D03*
X155533Y347331D02*
D03*
X151793Y338669D02*
D03*
X159274D02*
D03*
X177744Y347331D02*
D03*
X174004Y338669D02*
D03*
X181485D02*
D03*
X199955Y347331D02*
D03*
X196215Y338669D02*
D03*
X203696D02*
D03*
X222167Y347331D02*
D03*
X218426Y338669D02*
D03*
X225907D02*
D03*
X244378Y347331D02*
D03*
X240637Y338669D02*
D03*
X248118D02*
D03*
X266589Y347331D02*
D03*
X262849Y338669D02*
D03*
X270329D02*
D03*
X288800Y347331D02*
D03*
X285060Y338669D02*
D03*
X292540D02*
D03*
D127*
X348000Y398062D02*
D03*
Y393338D02*
D03*
X353000D02*
D03*
Y398062D02*
D03*
D128*
X351453Y370807D02*
D03*
X349484D02*
D03*
X347516D02*
D03*
X345547D02*
D03*
X351453Y384193D02*
D03*
X349484D02*
D03*
X347516D02*
D03*
X345547D02*
D03*
D129*
X372500Y367158D02*
D03*
Y361842D02*
D03*
D130*
X359826Y366980D02*
D03*
X367306D02*
D03*
Y378594D02*
D03*
X363566D02*
D03*
X359826D02*
D03*
D131*
X366354Y361000D02*
D03*
X360646D02*
D03*
D132*
X364913Y385787D02*
D03*
X358220D02*
D03*
M02*
