M48
;Layer_Color=9474304
;FILE_FORMAT=2:5
INCH,LZ
;TYPE=PLATED
T2F00S00C0.01000
T3F00S00C0.02756
T4F00S00C0.03543
T5F00S00C0.03700
T6F00S00C0.04016
T7F00S00C0.04331
T8F00S00C0.05900
T9F00S00C0.06299
T10F00S00C0.07300
;TYPE=NON_PLATED
T11F00S00C0.05000
T12F00S00C0.12000
T13F00S00C0.16900
%
T02
X04712Y00499
X0421962Y0082324
X0416262Y0082524
X0388762Y0079724
X03934Y00638
X03891Y01829
X04002Y01971
X04029Y0203
X03997Y02118
X036Y01565
X03654Y00828
X03689Y00674
X0347Y0077
X0266Y00719
X02529Y00751
X02575Y00847
X02585Y0089
X0265Y00885
X0251Y00955
X0244Y00885
X02335Y0098
X02285Y0077273
X02885Y01066
Y01188
X0284Y013
X02796Y01327
X0277039Y016665
X0273965Y0171
X02775Y01745
X0267Y0169
X02375Y01845
X02426Y01901
X02393Y02003
X02448Y02045
X02508
X030225Y020955
X0158Y02035
X01536
Y01859
Y0161
X01706Y01613
X01754Y01614
X01753Y01548
X01707Y01547
X01706Y01688
X01754
X01753Y01762
X01707Y01759
X01706Y0119
X01753Y01231
X0211229Y0092607
X01Y00775
X01031Y01614
X0103Y01676
X0102Y0191
X01215Y01878
X0114319Y0202575
X007Y0197
X0052Y01982
X0047Y0198
X0042
Y0203
X0042015Y0208
X0041945Y0192555
X0042Y0188
X0047
X00396Y01767
X0024Y0174
X0027597Y0169965
X00275Y0161036
X00217Y0188
Y0193
Y0203
Y0208
X0022Y00995
X0016
Y00905
X0019
X0021997Y0090376
X0013Y00905
Y00775
X0019Y00805
X00221Y0232466
X0022Y02379
X00171Y02382
X00155Y02352
X00218Y02431
X00155Y02505
X00169Y0258
X00219Y02579
X0022Y02631
X00253Y0268236
X00323Y0268
X0037Y02677
X00371Y02631
X00416Y0263
X00417Y0258
X0042Y0253
X00468Y02531
X0042Y0248
X00371Y02479
X0037Y0243
Y0238
Y0233
X0041982Y0232982
X0042Y0228
Y0223
Y0218
Y0213
X0037Y0218018
Y0223
X00518Y0218
Y023315
X00323Y0258054
X00319Y02727
X0037Y0278
X0042
X00422Y0273
X0042Y02681
X0037Y0283
X00322Y02829
X0032Y0288
X0037Y0293
Y0298
Y0303
Y0308
Y0318
X003704Y032296
X00371Y03331
X00469Y03379
X0052Y0338
X0047Y0328
X0041976Y0352976
X0032352Y0352952
X0022Y0358
X0016799Y0358116
X00155Y03505
X001675Y0338
X0022
Y0343
X00155Y03305
X00165Y0318
X0016Y03105
X0017Y0298
X00155Y02905
X0017Y0278
X00154Y02705
X00685Y0273
X00715Y0281
X00745Y02835
X00775Y0286
X00805Y02885
X00835Y02915
X00868Y02933
X00865Y02986
X00941Y02942
X0099775
X010545
X0111125
X01168
X01165Y03058
X01227Y03061
X01364Y0309
X01587Y03116
X01806Y03134
X02037
X02127Y03296
X02087Y03395
X018637Y033953
X01903Y03301
X01682Y03304
X0164225Y0339275
X01731Y03523
X01955Y03532
X015Y03517
X0141281Y0339322
X01453Y03303
X01244Y03302
X011907Y0339322
X01271Y03523
X01032Y03512
X00969Y03394
X01007Y03303
X00803Y03249
X00806Y03376
X00676Y03276
Y0303
X0069346Y02587
X00698Y02535
X00688Y02457
X0067327Y0242902
X00685Y02381
X00745Y02385
X00775Y0241
X0081Y02385
Y0245
X0079282Y0253482
X00835Y02587
X0087Y0268
X00948Y02676
X01116Y02686
X01127Y02636
X01298Y02604
X0134787Y0272547
X0139287
X0140787Y0281047
X01245Y02875
X017Y0285
Y0291
X0151764Y0256274
X0145787Y025625
X01188Y0241
X01193Y02316
X0101163Y0239663
X01045Y0248871
X01035Y0221
X0079Y02156
X0074561Y023145
X00685
X0148Y02135
X0084311Y0367991
X00799Y03644
X0075152Y0360952
X0074107Y0368093
X00685Y03666
X00711Y03561
X02173Y03514
X02399
X02595Y03518
X02526Y03391
X02571Y03302
X02792Y03303
X02754Y03394
X02809Y03504
X02992Y035525
Y0360262
Y0365275
X03269Y03622
X03274Y03545
X03435Y0348
X0349437Y0345634
X0354047Y0345744
X036Y0348
X0361Y03565
X03689Y03548
X0354Y0363
X03495Y036
X0335168Y0327407
X03351Y03231
Y03185
Y03143
X0344Y03139
X03441Y03182
X0344Y03093
Y03055
X0339Y02965
X03296Y02928
X03299Y02874
X03302Y02556
Y025146
Y024732
Y024318
Y023904
Y02349
X0293498Y0228502
X030225Y02135
X029997Y025397
X02719Y03134
X0245265
X02248
X02344Y03304
X0230133Y0339353
X03612Y03072
Y03025
Y02979
X0368Y02948
X0368441Y0216141
X0382Y02435
Y02715
X038585Y029465
X03922Y02979
X03941Y0307
X04031Y03025
X03733Y03525
X04435Y0221
X03665Y03905
X03618Y03935
X03575Y039055
X03513Y0389
X0341803Y0389461
X03344Y03815
X03359Y03755
X03255Y0375
X0299028Y0375128
X02992Y0370287
X02778Y0376153
X02343
X01898Y0376238
X01455Y03761
X01018Y0375653
X00595Y03794
X00628Y03838
X00625Y03893
X0065982Y0391818
X0042Y0373
X00155Y03705
X00165Y03785
T03
X0227272Y02146
X0233178
X0239084
X0244989
X0250894
X02568
X0262705
X0268611
X0274517
X0280422
T04
X00908Y0364153
X01128
X01348
X01568
X01788
X02008
X02228
X02448
X02668
X02888
Y0374153
Y0384153
X02668
Y0374153
X02448
Y0384153
X02228
Y0374153
X02008
Y0384153
X01788
Y0374153
X01568
Y0384153
X01348
Y0374153
X01128
Y0384153
X00908
Y0374153
T05
X00442Y00515
X00532
X00622
X00712
X00802
X01675
X01765
X01855
X01945
X02035
X02905Y0051
X02995
X03085
X03175
X03265
X04134Y00511
X04224
X04314
X04404
X04494
X04449Y00611
X04359
X04269
X04179
X04134Y00711
X04224
X04314
X04404
X04494
X04539Y00611
X0331Y0061
X0322
X0313
X0304
X0295
X02905Y0071
X02995
X03085
X03175
X03265
X02035Y00715
X01945
X01855
X01765
X01675
X0172Y00615
X0181
X019
X0199
X0208
X00847
X00757
X00667
X00577
X00622Y00715
X00712
X00802
X00532
X00442
X00487Y00615
T06
X02375Y01765
X02475
X02575
X02675
X0305Y01695
X0315
X0325
X0335
X0345
X0355
X0202Y0151
X0192
Y01371
X0202
X00877Y01391
Y01491
X0129Y02015
X0139
X0142Y0225
Y0235
Y0245
X0156Y02445
Y02345
X0097Y02335
Y02235
Y02135
X0087
Y02235
Y02335
Y02435
X0097
Y02535
X0087
T07
X0463Y0129
Y0139
Y0149
Y0159
X0473
Y0149
Y0139
Y0129
Y0169
Y0179
Y0189
Y0199
Y0209
X0463
Y0199
Y0189
Y0179
Y0169
Y0219
Y0229
X0473
Y0239
Y0249
X0463
Y0259
Y0269
X0473
Y0279
X0463
X0473Y0259
X0463Y0239
X0473Y0219
T08
X035Y02265
X03626
Y02887
X035
T09
X0185737Y0222277
X0321957
T10
X03563Y02391
Y02576
Y02761
T11
X0042Y0170949
X0054008Y0385051
T12
X03832Y00611
X04816
X03587Y0061
X02603
X02357Y00615
X01373
X01124
X0014
T13
X0476Y01047
Y0369
M30
